<?xml version="1.0" encoding="iso-8859-1"?>
<!-- Generator: Adobe Illustrator 19.0.0, SVG Export Plug-In . SVG Version: 6.00 Build 0)  -->
<svg version="1.1" id="Capa_1" xmlns="http://www.w3.org/2000/svg" xmlns:xlink="http://www.w3.org/1999/xlink" x="0px" y="0px"
	 viewBox="0 0 384 384" style="enable-background:new 0 0 384 384;" xml:space="preserve">
<circle style="fill:#F39200;" cx="244" cy="296" r="81.6"/>
<circle style="fill:#F0D215;" cx="244" cy="296" r="63.6"/>
<g>
	<path style="fill:#321D00;" d="M244,208.8c-48,0-87.6,39.2-87.6,87.6c0,48,39.2,87.6,87.6,87.6c48,0,87.6-39.2,87.6-87.6
		S292.4,208.8,244,208.8z M244,372c-42,0-76-34-76-76s34-76,76-76s76,34,76,76S286,372,244,372z"/>
	<path style="fill:#321D00;" d="M244,226.8c-38,0-69.2,31.2-69.2,69.2s31.2,69.2,69.2,69.2s69.2-31.2,69.2-69.2S282,226.8,244,226.8
		z M244,354c-32,0-58-26-58-58s26-58,58-58s58,26,58,58S276,354,244,354z"/>
	<path style="fill:#321D00;" d="M278,280c0-11.2-8.4-20.4-19.6-21.2v-5.6c0-3.2-2.4-5.6-5.6-5.6c-3.2,0-5.6,2.4-5.6,5.6v5.6h-6.8
		v-5.6c0-3.2-2.4-5.6-5.6-5.6s-5.6,2.4-5.6,5.6v5.6h-7.6c-3.2,0-5.6,2.4-5.6,5.6s2.4,5.6,5.6,5.6h7.6v20.4c-2.8,0-5.2,2.4-5.2,5.6
		c0,2.8,2.4,5.2,5.2,5.6V322h-7.6c-3.2,0-5.6,2.4-5.6,5.6s2.4,5.6,5.6,5.6h7.6v5.6c0,3.2,2.4,5.6,5.6,5.6s5.6-2.4,5.6-5.6v-5.6h6.8
		v5.6c0,3.2,2.4,5.6,5.6,5.6c3.2,0,5.6-2.4,5.6-5.6v-5.6c10.8-1.2,19.6-10,19.6-21.2c0-6.4-2.8-12-7.2-16
		C275.2,292,278,286.4,278,280z M266.8,312c0,5.6-4.4,10.4-10.4,10.4h-16V302h16C262.4,301.6,266.8,306.4,266.8,312z M240.4,290.4
		V270h16c5.6,0,10.4,4.4,10.4,10.4c0,5.6-4.4,10.4-10.4,10.4h-16V290.4z"/>
</g>
<polygon style="fill:#B17F4A;" points="281.6,48.4 303.2,69.6 75.2,315.2 38.4,278.4 257.2,71.6 "/>
<polygon style="fill:#EAEAEA;" points="284,92.8 303.2,68.4 281.6,48.4 254.8,73.6 "/>
<path style="fill:#321D00;" d="M75.2,320.8c-1.6,0-2.8-0.4-4-1.6l-36.8-36.8c-1.2-1.2-1.6-2.4-1.6-4s0.8-2.8,1.6-4L278,44.4
	c2.4-2,5.6-2,8,0l21.2,21.2c2,2,2.4,5.6,0,8l-228,245.2C78.4,320,76.8,320.8,75.2,320.8L75.2,320.8z M46.4,278.4l28.4,28.4
	l220-237.2L281.2,56L46.4,278.4z"/>
<path style="fill:#C6C5C4;" d="M286.8,86.8c0,0,58.8,70.4,58.8,144c0,0-57.2-88-84.8-116L235.6,90c-26.8-26.8-116-84.8-116-84.8
	c73.6,0,144,58.8,144,58.8L286.8,86.8z"/>
<path style="fill:#321D00;" d="M345.6,236.4c-2,0-3.6-0.8-4.8-2.4c-0.4-0.8-57.2-88-84.4-114.8l-25.2-24.4
	c-26-26-114-83.6-114.8-84.4c-2-1.2-3.2-4-2.4-6.4s2.8-4,5.6-4c74.8,0,144.8,57.6,147.6,60l23.6,22.8l0.4,0.4
	c2.4,2.8,59.6,72,60,146.4c0,0.4,0,0.8,0,1.2C351.2,234,348.8,236.4,345.6,236.4L345.6,236.4z M140.8,12.8
	c27.6,18.4,78.8,54,98.8,73.6l25.2,24.4c20.4,20.4,55.2,71.2,73.6,98.8c-9.2-60.8-52.8-115.2-55.6-118.8l-23.2-22.4
	C259.2,68,203.2,22,140.8,12.8z"/>
<g>
</g>
<g>
</g>
<g>
</g>
<g>
</g>
<g>
</g>
<g>
</g>
<g>
</g>
<g>
</g>
<g>
</g>
<g>
</g>
<g>
</g>
<g>
</g>
<g>
</g>
<g>
</g>
<g>
</g>
</svg>
