<svg xmlns="http://www.w3.org/2000/svg" viewBox="0 0 600 600">
  <defs>
    <linearGradient id="grad1" x1="0%" y1="0%" x2="100%" y2="100%">
      <stop offset="0%" stop-color="#0c0080" />
      <stop offset="100%" stop-color="#a7456f" />
    </linearGradient>
  </defs>
  <path fill="url(#grad1)" d="M599.6 148.1c-.4-13.2-1.2-26.4-3.4-39.4-2.4-13.2-6.2-25.4-12.4-37.4-6-11.8-13.8-22.6-23.2-32-9.4-9.4-20.2-17.2-32-23.2-12-6.2-24.2-10-37.4-12.4-13-2.4-26.2-3.2-39.4-3.4-6-.2-12-.2-18.2-.2H166.2c-6 0-12 .2-18.2.2-13.2.4-26.4 1.2-39.4 3.4-13.2 2.4-25.4 6.2-37.4 12.4-11.8 6-22.6 13.8-32 23.2-9.4 9.4-17.2 20.2-23.2 32-6.2 12-10 24.2-12.4 37.4-2.4 13-3.2 26.2-3.4 39.4-.2 6-.2 12-.2 18.2v267.4c0 6 .2 12 .2 18.2.4 13.2 1.2 26.4 3.4 39.4C6 504.5 9.8 516.7 16 528.7c6 11.8 13.8 22.6 23.2 32 9.4 9.4 20.2 17.2 32 23.2 12 6.2 24.2 10 37.4 12.4 13 2.4 26.2 3.2 39.4 3.4 6 .2 12 .2 18.2.2h267.4c6 0 12-.2 18.2-.2 13.2-.4 26.4-1.2 39.4-3.4 13.2-2.4 25.4-6.2 37.4-12.4 11.8-6 22.6-13.8 32-23.2 9.4-9.4 17.2-20.2 23.2-32 6.2-12 10-24.2 12.4-37.4 2.4-13 3.2-26.2 3.4-39.4.2-6 .2-12 .2-18.2V166.3c0-6-.2-12-.2-18.2zM402.65 198h-115v57.5h111.5v83h-111.5V402h115v83h-205.5V115h205.5v83z"/>
</svg>
