<?xml version="1.0" encoding="utf-8"?>
<svg id="master-artboard" viewBox="0 0 1154.5775146484375 980" version="1.1" xmlns="http://www.w3.org/2000/svg" x="0px" y="0px" width="1154.5775146484375px" height="980px" enable-background="new 0 0 1400 980"><rect id="ee-background" x="0" y="0" width="1154.5775146484375" height="980" style="fill: white; fill-opacity: 0; pointer-events: none;"/>




<path d="M 279 198.3000030517578 L 549 143.89999389648438 L 517.7999877929688 644 L 159.3000030517578 702.7999877929688 Z" fill-rule="evenodd" clip-rule="evenodd" fill="#99FF99" transform="matrix(1, 0, 0, 1, -125.70422363281247, 0)" style="fill: rgb(77, 127, 168);"/><path d="M 840.9000244140625 202.6999969482422 L 549 143.89999389648438 L 517.7999877929688 644 L 876.5 702.7999877929688 Z" fill-rule="evenodd" clip-rule="evenodd" fill="#77DB77" transform="matrix(1, 0, 0, 1, -125.70422363281247, 0)" style="fill: rgb(66, 109, 145);"/><path d="M 840.9000244140625 202.6999969482422 L 1098.800048828125 160.39999389648438 L 1250.5999755859375 652.5 L 876.5 702.7999877929688 Z" fill-rule="evenodd" clip-rule="evenodd" fill="#99FF99" transform="matrix(1, 0, 0, 1, -125.70422363281247, 0)" style="fill: rgb(77, 127, 168);"/><path fill-rule="evenodd" clip-rule="evenodd" fill="#669966" d="M962.5,235.9c-58.4-0.8-90.2,28.5-145.9,34.6&#10;&#9;&#9;c-47.8,5.2-51.3,0.5-97-5C699,263.1,642.3,238,616,235.3c-43.1-4.4-80.7-21.4-128.7-5.1c-20.1,6.8-37.7,19.7-58.5,21.1&#10;&#9;&#9;c-31.8,2-68.8,7.6-87.1,36.2c-7.1,11.1-11.8,49.5-11.8,65c0,57.1-0.4,65.8-20.5,122.2c-8.9,24.9-22.5,22.7-9,56.6&#10;&#9;&#9;c0.1,0.3,20.6,18.4,24.3,27.3c1.3,3.1,19.6,29.6,26.1,31.9c30.7,10.9,84.5,1.5,118.8,1.5c61.2,0,40.5,0.3,92.4,17.1&#10;&#9;&#9;c38.7,12.6,98.4-0.8,137.6,10.6c19.3,5.6,47.1,3.1,80.5,13.1c20.5,6.1,139,14.7,157.7,4.7c15.5-8.3,82-34.8,98.3-35.1&#10;&#9;&#9;c16.8-0.2,37.4-21.7,37.4-42.8c0-64.1-57-127.9-27.7-192.1c9.2-20.2-2.8-56.6-18.1-72.7c-32.6-34.3-30.1-8.3-57.7-54&#10;&#9;&#9;C968.8,238.7,964.4,235.9,962.5,235.9L962.5,235.9z" transform="matrix(1, 0, 0, 1, -125.70422363281247, 0)" style="fill: rgb(136, 204, 136);"/><path fill-rule="evenodd" clip-rule="evenodd" fill="#4B804B" d="M845.3,265.1c-9,2.3-18.4,4.3-28.7,5.4c-47.8,5.2-51.3,0.5-97-5&#10;&#9;&#9;C699,263.1,642.3,238,616,235.3c-24.8-2.6-47.8-9.3-72-11.4l-23.2,370.8c8.4,2.3,16.7,6.6,41.3,14.5c38.7,12.6,98.4-0.8,137.6,10.6&#10;&#9;&#9;c19.3,5.6,47.1,3.1,80.5,13.1c11.5,3.4,53.7,7.6,91.9,8.9L845.3,265.1z" transform="matrix(1, 0, 0, 1, -125.70422363281247, 0)" style="fill: rgb(93, 159, 93);"/><path fill="#FFFFFF" d="M690.5,278.5l-2.2-55.2l3.7-0.1l2.2,55.7l85,6.5l0.2-41.3h3.7l-0.2,41.5l63.8,2.3l53.2-21.5l-13-39l3.5-1.1&#10;&#9;&#9;l13.1,39.1l113.7-22.6l0.7,3.6l-113.2,22.5l3.2,9.8l34.1,9.6l9.8,32.7l121-23.4l0.7,3.6l-120.6,23.4l46.8,156.5l105.4-21.6l0.7,3.6&#10;&#9;&#9;l-105.2,21.6l21.7,94.2l74.5-17.2l0.8,3.6l-74.3,17.1l20.1,57.4l-3.5,1.2l-20.2-57.8l-149.4,34.5l-130.8-17.7l2.5,47.8l-3.7,0.2&#10;&#9;&#9;l-5.1-98.6l-206.5-48.5l-71.3,7.1l-7.6,43.2l-24.6,18.6L403.4,630l-3.5-1.2l20.2-61.3l24.3-18.4l7-40l-144,53.1l-1.3-3.5l146-53.9&#10;&#9;&#9;l7.1-40.1L265.1,512l-0.9-3.6l125-30.4l10.3-62.5L287,445.7l-0.9-3.6l114.2-30.6l6.9-41.7l-45.6,11.5l13.3-42.1l-79,23.2l0.5-4&#10;&#9;&#9;l79.5-23.4l3-36.4l-18.3,3.9l10-78.9l3.6-1l-9.3,75.2l55.9-12l9.3-56.7l4-1.2l-9.4,56.7l85-28.1l5.2-66.2l3.7,0.3l-5,64.6l29-10.3&#10;&#9;&#9;l58.4,13.3l2.8-76.1l3.7,0.1l-2.8,76.8l84.2,19.1L690.5,278.5z M393.1,477l95.8-23.3l13.8-108.5L411,368.8L393.1,477z M424.1,288.8&#10;&#9;&#9;l-12.5,76l91.5-23.4l6.3-80.7L424.1,288.8z M407.7,365.8l12.5-76l-37.6,8l-3.2,38.8L367,376.1L407.7,365.8z M463.2,463.8l-7.1,40.3&#10;&#9;&#9;l70.9-7l206.1,48.5l-1.8-58.5l-201.1-39.5L463.2,463.8z M735,487.8l1.8,60l2.5,48.5L870.2,614l64.5-14.9l-22.3-96.4L862.8,513&#10;&#9;&#9;L735,487.8z M911.8,499.1l-6.6-60.9l70.6-24l-17.6-59l-103.3,42.4l-69.9-8l2.1,104.8l75.7,14.9L911.8,499.1z M783.4,493.6&#10;&#9;&#9;l-1.2-58.5l-116.7-23.9l-4.4,58.4L783.4,493.6z M657.4,468.8l7.9-105.2l-128.2-27.1l-30.6,7.8l-13.8,108.5l37.3-9.1L657.4,468.8z&#10;&#9;&#9; M915.4,498.4l80.6-16.5l-19.1-64.1l-67.6,23L915.4,498.4z M996.9,485.4L916.1,502l22.2,96.2l80.4-18.6L996.9,485.4z M784.9,385.8&#10;&#9;&#9;l69.4,8l102.7-42.2l-18-60.3l-34.1-9.6l-3.9-11.7l-53.7,21.8l-64.4-2.2L784.9,385.8z M779.3,289.4l-90.8-7.3l-84-19.1l-8.5,82.2&#10;&#9;&#9;l69.7,14.7l2.6-34.4l112.1,17.4L779.3,289.4z M780.4,346.6l-108.8-16.8l-5.9,77.7l116.4,23.8L780.4,346.6z M592.3,344.4l8.5-82.3&#10;&#9;&#9;l-58.4-13.1l-29.1,10.3l-6.4,81l30.1-7.7L592.3,344.4z" transform="matrix(1, 0, 0, 1, -125.70422363281247, 0)"/><path d="M 675 366.8999938964844 L 672.0999755859375 400.8999938964844 L 733.9000244140625 413.20001220703125 L 733.5999755859375 375.79998779296875 Z" fill-rule="evenodd" clip-rule="evenodd" fill="#FFCC00" transform="matrix(1, 0, 0, 1, -125.70422363281247, 0)"/><path d="M 737.2000122070312 348.6000061035156 L 737.4000244140625 370.20001220703125 L 773.4000244140625 377.6000061035156 L 772.0999755859375 353 Z" fill-rule="evenodd" clip-rule="evenodd" fill="#FFFF99" transform="matrix(1, 0, 0, 1, -125.70422363281247, 0)"/><path d="M 737.5 291.79998779296875 L 737.2000122070312 328.70001220703125 L 773.0999755859375 335 L 772.2999877929688 294.79998779296875 Z" fill-rule="evenodd" clip-rule="evenodd" fill="#FF9933" transform="matrix(1, 0, 0, 1, -125.70422363281247, 0)"/><path d="M 664.7999877929688 283.70001220703125 L 660.5 353.29998779296875 L 605 339.70001220703125 L 611.5999755859375 269.79998779296875 Z" fill-rule="evenodd" clip-rule="evenodd" fill="#99CC33" transform="matrix(1, 0, 0, 1, -125.70422363281247, 0)"/><path d="M 673.2999877929688 285.29998779296875 L 673.0999755859375 294.79998779296875 L 732.9000244140625 301.29998779296875 L 732.5 292.20001220703125 Z" fill-rule="evenodd" clip-rule="evenodd" fill="#FFFF99" transform="matrix(1, 0, 0, 1, -125.70422363281247, 0)"/><path d="M 847 386.6000061035156 L 837 353.29998779296875 L 792.9000244140625 350.29998779296875 L 792.0999755859375 379.20001220703125 Z" fill-rule="evenodd" clip-rule="evenodd" fill="#99CC33" transform="matrix(1, 0, 0, 1, -125.70422363281247, 0)"/><path d="M 858.7999877929688 385.5 L 852.7000122070312 368.79998779296875 L 846.2999877929688 351 L 851.4000244140625 350.70001220703125 L 887.2999877929688 334.79998779296875 L 895.9000244140625 368.79998779296875 Z" fill-rule="evenodd" clip-rule="evenodd" fill="#FFCC00" transform="matrix(1, 0, 0, 1, -125.70422363281247, 0)"/><path d="M 905.7999877929688 363.6000061035156 L 902.2000122070312 353.29998779296875 L 935.5 344.79998779296875 L 928.0999755859375 306.29998779296875 L 938.7999877929688 305.8999938964844 L 949.2000122070312 346.6000061035156 Z" fill-rule="evenodd" clip-rule="evenodd" fill="#FFFF99" transform="matrix(1, 0, 0, 1, -125.70422363281247, 0)"/><path d="M 920.2999877929688 332.20001220703125 L 898.7999877929688 337.3999938964844 L 894 315.8999938964844 L 915.0999755859375 308.1000061035156 Z" fill-rule="evenodd" clip-rule="evenodd" fill="#FF9933" transform="matrix(1, 0, 0, 1, -125.70422363281247, 0)"/><path d="M 842.9000244140625 299.20001220703125 L 825.5 297.70001220703125 L 825.7999877929688 313.29998779296875 L 843.5999755859375 314 Z" fill-rule="evenodd" clip-rule="evenodd" fill="#FFFF99" transform="matrix(1, 0, 0, 1, -125.70422363281247, 0)"/><path d="M 843.5 495.6000061035156 L 798.2999877929688 486.3999938964844 L 797.2000122070312 455.70001220703125 L 840.9000244140625 464.20001220703125 Z" fill-rule="evenodd" clip-rule="evenodd" fill="#FF9999" transform="matrix(1, 0, 0, 1, -125.70422363281247, 0)"/><path d="M 795.7000122070312 511.20001220703125 L 746.0999755859375 501.8999938964844 L 745.7000122070312 511.20001220703125 L 795.2999877929688 523 Z" fill-rule="evenodd" clip-rule="evenodd" fill="#FF9933" transform="matrix(1, 0, 0, 1, -125.70422363281247, 0)"/><path d="M 752.4000244140625 558.5999755859375 L 817.2000122070312 568.9000244140625 L 814.9000244140625 596.4000244140625 L 750.9000244140625 589.2999877929688 Z" fill-rule="evenodd" clip-rule="evenodd" fill="#FF9999" transform="matrix(1, 0, 0, 1, -125.70422363281247, 0)"/><path d="M 900.9000244140625 580.7999877929688 L 904.2000122070312 599 L 924.2000122070312 591.2000122070312 L 917.9000244140625 574.5 Z" fill-rule="evenodd" clip-rule="evenodd" fill="#99FFFF" transform="matrix(1, 0, 0, 1, -125.70422363281247, 0)"/><path d="M 645.5 457.29998779296875 L 610.7000122070312 446.6000061035156 L 612.2000122070312 439.20001220703125 L 642.5 446.8999938964844 L 644.7000122070312 428.1000061035156 L 649.9000244140625 430.70001220703125 Z" fill-rule="evenodd" clip-rule="evenodd" fill="#FFFF99" transform="matrix(1, 0, 0, 1, -125.70422363281247, 0)"/><path d="M 655.9000244140625 394 L 658.2999877929688 369.8999938964844 L 627 364.79998779296875 L 627 371.79998779296875 L 649.4000244140625 373.70001220703125 L 646 389.20001220703125 Z" fill-rule="evenodd" clip-rule="evenodd" fill="#FFFF99" transform="matrix(1, 0, 0, 1, -125.70422363281247, 0)"/><path d="M 536.5 343.6000061035156 L 512.9000244140625 349.5 L 509.8999938964844 372 L 520 372 L 521.4000244140625 358.3999938964844 L 535.9000244140625 353.29998779296875 Z" fill-rule="evenodd" clip-rule="evenodd" fill="#FFFF99" transform="matrix(1, 0, 0, 1, -125.70422363281247, 0)"/><path d="M 506.6000061035156 416.20001220703125 L 517.4000244140625 413.6000061035156 L 513.7000122070312 431 L 531.2000122070312 429.6000061035156 L 530.7000122070312 437 L 502.20001220703125 444 Z" fill-rule="evenodd" clip-rule="evenodd" fill="#FFFF99" transform="matrix(1, 0, 0, 1, -125.70422363281247, 0)"/><path d="M 549.9000244140625 375.5 L 544.7999877929688 411.79998779296875 L 606.5999755859375 422.1000061035156 L 609.2000122070312 384.3999938964844 Z" fill-rule="evenodd" clip-rule="evenodd" fill="#99CC33" transform="matrix(1, 0, 0, 1, -125.70422363281247, 0)"/><path d="M 542 255.6999969482422 L 588.2999877929688 266.79998779296875 L 586.0999755859375 287.8999938964844 L 540.9000244140625 274.20001220703125 L 522 280.5 L 522.2999877929688 267.20001220703125 Z" fill-rule="evenodd" clip-rule="evenodd" fill="#FFFF99" transform="matrix(1, 0, 0, 1, -125.70422363281247, 0)"/><path d="M 562 311.20001220703125 L 560.9000244140625 329 L 587.9000244140625 334.6000061035156 L 587.5 314.8999938964844 Z" fill-rule="evenodd" clip-rule="evenodd" fill="#FFFF99" transform="matrix(1, 0, 0, 1, -125.70422363281247, 0)"/><path d="M 495.20001220703125 327.6000061035156 L 494.8999938964844 338.70001220703125 L 485 340.1000061035156 L 485 332 Z" fill-rule="evenodd" clip-rule="evenodd" fill="#FFFF99" transform="matrix(1, 0, 0, 1, -125.70422363281247, 0)"/><path d="M 496.79998779296875 322.70001220703125 L 479.3999938964844 328.70001220703125 L 482.29998779296875 301.6000061035156 L 501.6000061035156 295.70001220703125 Z" fill-rule="evenodd" clip-rule="evenodd" fill="#FF9933" transform="matrix(1, 0, 0, 1, -125.70422363281247, 0)"/><path d="M 498.6000061035156 289.3999938964844 L 455.70001220703125 304.20001220703125 L 457.5 283.79998779296875 L 503.1000061035156 268.70001220703125 Z" fill-rule="evenodd" clip-rule="evenodd" fill="#99FFFF" transform="matrix(1, 0, 0, 1, -125.70422363281247, 0)"/><path d="M 421.6000061035156 341.29998779296875 L 417.5 358.6000061035156 L 432 353.79998779296875 L 433.3999938964844 340.1000061035156 Z" fill-rule="evenodd" clip-rule="evenodd" fill="#FFFF99" transform="matrix(1, 0, 0, 1, -125.70422363281247, 0)"/><path d="M 465.1000061035156 451 L 409.8999938964844 465.5 L 415.8999938964844 427.29998779296875 L 472.1000061035156 412.1000061035156 Z" fill-rule="evenodd" clip-rule="evenodd" fill="#FFCC00" transform="matrix(1, 0, 0, 1, -125.70422363281247, 0)"/><path d="M 485.1000061035156 392.5 L 455.8999938964844 401.3999938964844 L 460.70001220703125 363.29998779296875 L 489.8999938964844 354.79998779296875 Z" fill-rule="evenodd" clip-rule="evenodd" fill="#99FFFF" transform="matrix(1, 0, 0, 1, -125.70422363281247, 0)"/><path d="M 461.1000061035156 517.7000122070312 L 458.5 546.9000244140625 L 490.29998779296875 542.0999755859375 L 490.70001220703125 539.5 L 491.3999938964844 511.70001220703125 Z" fill-rule="evenodd" clip-rule="evenodd" fill="#FFFF99" transform="matrix(1, 0, 0, 1, -125.70422363281247, 0)"/><path d="M 391.79998779296875 517.7000122070312 L 395.8999938964844 501.79998779296875 L 374.3999938964844 507.70001220703125 L 368.79998779296875 528.4000244140625 Z" fill-rule="evenodd" clip-rule="evenodd" fill="#FFCC00" transform="matrix(1, 0, 0, 1, -125.70422363281247, 0)"/><path d="M 239.6999969482422 642.5 L 234.8000030517578 653.7999877929688 L 237 653.5999755859375 L 233.1999969482422 662.2000122070312 L 237.3000030517578 661.0999755859375 L 236.8000030517578 666.7000122070312 L 235.1999969482422 668.7000122070312 L 240.6999969482422 667.2999877929688 L 240 666.2999877929688 L 240 660.7999877929688 L 244.5 659.5 L 240.1999969482422 652.7999877929688 L 244.10000610351562 651.7000122070312 Z" fill-rule="evenodd" clip-rule="evenodd" fill="#63C963" transform="matrix(1, 0, 0, 1, -125.70422363281247, 0)"/><path d="M 251 634.7999877929688 L 246 646.0999755859375 L 248.3000030517578 645.9000244140625 L 244.5 654.5 L 248.60000610351562 653.4000244140625 L 248 659 L 246.5 660.9000244140625 L 251.8000030517578 659.5999755859375 L 251 658.5 L 251 653.0999755859375 L 255.60000610351562 651.7000122070312 L 251.39999389648438 645 L 255.3000030517578 644 Z" fill-rule="evenodd" clip-rule="evenodd" fill="#63C963" transform="matrix(1, 0, 0, 1, -125.70422363281247, 0)"/><path d="M 260.3999938964844 641.2000122070312 L 255.5 652.4000244140625 L 257.70001220703125 652.2999877929688 L 253.89999389648438 660.7999877929688 L 258 659.7999877929688 L 257.5 665.4000244140625 L 255.89999389648438 667.2999877929688 L 261 665.9000244140625 L 260 664.9000244140625 L 260 659.5 L 264.79998779296875 658.0999755859375 L 260.70001220703125 651.4000244140625 L 264.70001220703125 650.4000244140625 Z" fill-rule="evenodd" clip-rule="evenodd" fill="#63C963" transform="matrix(1, 0, 0, 1, -125.70422363281247, 0)"/><path d="M 338.79998779296875 607.9000244140625 L 333.8999938964844 619.2000122070312 L 336.1000061035156 619 L 332.29998779296875 627.5 L 336.3999938964844 626.5 L 335.8999938964844 632.0999755859375 L 334.29998779296875 634 L 339.20001220703125 632.7000122070312 L 338 631.5999755859375 L 338 626.2000122070312 L 343 624.7999877929688 L 339.1000061035156 618.0999755859375 L 343 617.0999755859375 Z" fill-rule="evenodd" clip-rule="evenodd" fill="#63C963" transform="matrix(1, 0, 0, 1, -125.70422363281247, 0)"/><path d="M 350.1000061035156 600.0999755859375 L 345.1000061035156 611.4000244140625 L 347.3999938964844 611.2000122070312 L 343.5 619.7999877929688 L 347.70001220703125 618.7000122070312 L 347.1000061035156 624.2999877929688 L 345.6000061035156 626.2999877929688 L 350.3999938964844 624.9000244140625 L 349 623.9000244140625 L 349 618.4000244140625 L 354.20001220703125 617.0999755859375 L 350.29998779296875 610.4000244140625 L 354.29998779296875 609.2999877929688 Z" fill-rule="evenodd" clip-rule="evenodd" fill="#63C963" transform="matrix(1, 0, 0, 1, -125.70422363281247, 0)"/><path d="M 359.5 606.5 L 354.6000061035156 617.7999877929688 L 356.79998779296875 617.5999755859375 L 353 626.2000122070312 L 357.20001220703125 625.0999755859375 L 356.6000061035156 630.7000122070312 L 355 632.7000122070312 L 360.1000061035156 631.2999877929688 L 359 630.2000122070312 L 359 624.7999877929688 L 363.8999938964844 623.5 L 359.79998779296875 616.7000122070312 L 363.79998779296875 615.7000122070312 Z" fill-rule="evenodd" clip-rule="evenodd" fill="#63C963" transform="matrix(1, 0, 0, 1, -125.70422363281247, 0)"/><path d="M 304.70001220703125 267.79998779296875 L 299.79998779296875 279.1000061035156 L 302 278.8999938964844 L 298.20001220703125 287.5 L 302.29998779296875 286.3999938964844 L 301.79998779296875 292 L 300.20001220703125 294 L 305.20001220703125 292.6000061035156 L 304 291.5 L 304 286.1000061035156 L 309 284.70001220703125 L 305 278 L 308.8999938964844 277 Z" fill-rule="evenodd" clip-rule="evenodd" fill="#63C963" transform="matrix(1, 0, 0, 1, -125.70422363281247, 0)"/><path d="M 316 260 L 311.1000061035156 271.29998779296875 L 313.29998779296875 271.20001220703125 L 309.5 279.70001220703125 L 313.6000061035156 278.70001220703125 L 313.1000061035156 284.29998779296875 L 311.3999938964844 286.20001220703125 L 316.79998779296875 284.79998779296875 L 316 283.79998779296875 L 316 278.29998779296875 L 320.6000061035156 277 L 316.3999938964844 270.29998779296875 L 320.29998779296875 269.20001220703125 Z" fill-rule="evenodd" clip-rule="evenodd" fill="#63C963" transform="matrix(1, 0, 0, 1, -125.70422363281247, 0)"/><path d="M 325.3999938964844 266.5 L 320.5 277.70001220703125 L 322.70001220703125 277.6000061035156 L 318.8999938964844 286.1000061035156 L 323 285.1000061035156 L 322.5 290.70001220703125 L 320.8999938964844 292.6000061035156 L 326 291.20001220703125 L 325 290.20001220703125 L 325 284.70001220703125 L 329.79998779296875 283.3999938964844 L 325.79998779296875 276.70001220703125 L 329.70001220703125 275.70001220703125 Z" fill-rule="evenodd" clip-rule="evenodd" fill="#63C963" transform="matrix(1, 0, 0, 1, -125.70422363281247, 0)"/><path d="M 406.6000061035156 196.89999389648438 L 401.70001220703125 208.10000610351562 L 403.8999938964844 208 L 400.1000061035156 216.5 L 404.20001220703125 215.5 L 403.70001220703125 221.10000610351562 L 402.1000061035156 223 L 407.1000061035156 221.60000610351562 L 406 220.60000610351562 L 406 215.1999969482422 L 410.8999938964844 213.8000030517578 L 406.8999938964844 207.10000610351562 L 410.8999938964844 206 Z" fill-rule="evenodd" clip-rule="evenodd" fill="#63C963" transform="matrix(1, 0, 0, 1, -125.70422363281247, 0)"/><path d="M 417.8999938964844 189.10000610351562 L 412.8999938964844 200.39999389648438 L 415.20001220703125 200.1999969482422 L 411.29998779296875 208.8000030517578 L 415.5 207.6999969482422 L 414.8999938964844 213.3000030517578 L 413.3999938964844 215.1999969482422 L 418.29998779296875 213.89999389648438 L 417 212.8000030517578 L 417 207.39999389648438 L 422.1000061035156 206 L 418.1000061035156 199.3000030517578 L 422.1000061035156 198.3000030517578 Z" fill-rule="evenodd" clip-rule="evenodd" fill="#63C963" transform="matrix(1, 0, 0, 1, -125.70422363281247, 0)"/><path d="M 427.29998779296875 195.5 L 422.3999938964844 206.8000030517578 L 424.6000061035156 206.60000610351562 L 420.79998779296875 215.1999969482422 L 424.8999938964844 214.10000610351562 L 424.3999938964844 219.6999969482422 L 422.79998779296875 221.60000610351562 L 427.8999938964844 220.3000030517578 L 427 219.1999969482422 L 427 213.8000030517578 L 431.79998779296875 212.39999389648438 L 427.70001220703125 205.6999969482422 L 431.6000061035156 204.6999969482422 Z" fill-rule="evenodd" clip-rule="evenodd" fill="#63C963" transform="matrix(1, 0, 0, 1, -125.70422363281247, 0)"/><path d="M 1164.5 586.7000122070312 L 1159.5 598 L 1161.800048828125 597.7999877929688 L 1158 606.4000244140625 L 1162.0999755859375 605.2999877929688 L 1161.5 610.9000244140625 L 1160 612.9000244140625 L 1165.0999755859375 611.5 L 1164 610.4000244140625 L 1164 605 L 1168.9000244140625 603.7000122070312 L 1164.800048828125 596.9000244140625 L 1168.699951171875 595.9000244140625 Z" fill-rule="evenodd" clip-rule="evenodd" fill="#63C963" transform="matrix(1, 0, 0, 1, -125.70422363281247, 0)"/><path d="M 1175.800048828125 579 L 1170.800048828125 590.2000122070312 L 1173 590.0999755859375 L 1169.199951171875 598.5999755859375 L 1173.4000244140625 597.5999755859375 L 1172.800048828125 603.2000122070312 L 1171.199951171875 605.0999755859375 L 1176.199951171875 603.7000122070312 L 1175 602.7000122070312 L 1175 597.2999877929688 L 1180 595.9000244140625 L 1176 589.2000122070312 L 1180 588.2000122070312 Z" fill-rule="evenodd" clip-rule="evenodd" fill="#63C963" transform="matrix(1, 0, 0, 1, -125.70422363281247, 0)"/><path d="M 1185.199951171875 585.4000244140625 L 1180.199951171875 596.5999755859375 L 1182.5 596.4000244140625 L 1178.5999755859375 605 L 1182.800048828125 604 L 1182.199951171875 609.5999755859375 L 1180.5999755859375 611.5 L 1185.9000244140625 610.0999755859375 L 1185 609.0999755859375 L 1185 603.7000122070312 L 1189.699951171875 602.2999877929688 L 1185.5999755859375 595.5999755859375 L 1189.5 594.5999755859375 Z" fill-rule="evenodd" clip-rule="evenodd" fill="#63C963" transform="matrix(1, 0, 0, 1, -125.70422363281247, 0)"/><path d="M 1108.199951171875 401.6000061035156 L 1103.300048828125 412.79998779296875 L 1105.5 412.70001220703125 L 1101.5999755859375 421.20001220703125 L 1105.800048828125 420.20001220703125 L 1105.300048828125 425.79998779296875 L 1103.5999755859375 427.70001220703125 L 1108.4000244140625 426.29998779296875 L 1107 425.29998779296875 L 1107 419.8999938964844 L 1112.199951171875 418.5 L 1108.300048828125 411.79998779296875 L 1112.300048828125 410.79998779296875 Z" fill-rule="evenodd" clip-rule="evenodd" fill="#63C963" transform="matrix(1, 0, 0, 1, -125.70422363281247, 0)"/><path d="M 1119.5 393.79998779296875 L 1114.5 405.1000061035156 L 1116.800048828125 404.8999938964844 L 1112.9000244140625 413.5 L 1117.0999755859375 412.5 L 1116.5 418 L 1114.9000244140625 419.8999938964844 L 1120 418.6000061035156 L 1119 417.6000061035156 L 1119 412.1000061035156 L 1123.9000244140625 410.79998779296875 L 1119.800048828125 404.1000061035156 L 1123.699951171875 403 Z" fill-rule="evenodd" clip-rule="evenodd" fill="#63C963" transform="matrix(1, 0, 0, 1, -125.70422363281247, 0)"/><path d="M 1128.9000244140625 400.20001220703125 L 1123.9000244140625 411.5 L 1126.199951171875 411.29998779296875 L 1122.4000244140625 419.8999938964844 L 1126.5 418.79998779296875 L 1125.9000244140625 424.3999938964844 L 1124.4000244140625 426.29998779296875 L 1129.300048828125 425 L 1128 424 L 1128 418.5 L 1133.0999755859375 417.1000061035156 L 1129.0999755859375 410.5 L 1133.0999755859375 409.3999938964844 Z" fill-rule="evenodd" clip-rule="evenodd" fill="#63C963" transform="matrix(1, 0, 0, 1, -125.70422363281247, 0)"/><path d="M 1046.5999755859375 234 L 1041.699951171875 245.3000030517578 L 1043.9000244140625 245.10000610351562 L 1040.0999755859375 253.6999969482422 L 1044.199951171875 252.60000610351562 L 1043.699951171875 258.20001220703125 L 1042.0999755859375 260.20001220703125 L 1047.0999755859375 258.79998779296875 L 1046 257.70001220703125 L 1046 252.3000030517578 L 1051 251 L 1046.9000244140625 244.1999969482422 L 1050.9000244140625 243.1999969482422 Z" fill-rule="evenodd" clip-rule="evenodd" fill="#63C963" transform="matrix(1, 0, 0, 1, -125.70422363281247, 0)"/><path d="M 1057.9000244140625 226.3000030517578 L 1052.9000244140625 237.60000610351562 L 1055.199951171875 237.39999389648438 L 1051.4000244140625 245.89999389648438 L 1055.5 244.89999389648438 L 1054.9000244140625 250.5 L 1053.4000244140625 252.39999389648438 L 1058.800048828125 251.10000610351562 L 1058 250 L 1058 244.60000610351562 L 1062.5999755859375 243.1999969482422 L 1058.4000244140625 236.5 L 1062.199951171875 235.5 Z" fill-rule="evenodd" clip-rule="evenodd" fill="#63C963" transform="matrix(1, 0, 0, 1, -125.70422363281247, 0)"/><path d="M 1067.300048828125 232.6999969482422 L 1062.4000244140625 243.89999389648438 L 1064.5999755859375 243.8000030517578 L 1060.800048828125 252.3000030517578 L 1064.9000244140625 251.3000030517578 L 1064.4000244140625 256.8999938964844 L 1062.800048828125 258.79998779296875 L 1067.9000244140625 257.3999938964844 L 1067 256.3999938964844 L 1067 251 L 1071.800048828125 249.60000610351562 L 1067.699951171875 242.89999389648438 L 1071.5999755859375 241.89999389648438 Z" fill-rule="evenodd" clip-rule="evenodd" fill="#63C963" transform="matrix(1, 0, 0, 1, -125.70422363281247, 0)"/><path d="M 662.7000122070312 540.7999877929688 L 613.0999755859375 531.5999755859375 L 607.2000122070312 558.2000122070312 L 664.2000122070312 571.9000244140625 Z" fill-rule="evenodd" clip-rule="evenodd" fill="#FF9933" transform="matrix(1, 0, 0, 1, -125.70422363281247, 0)"/><path d="M 674.2000122070312 555.2999877929688 L 676.4000244140625 573.4000244140625 L 698.5999755859375 578.5999755859375 L 697.5 557.9000244140625 Z" fill-rule="evenodd" clip-rule="evenodd" fill="#99FFFF" transform="matrix(1, 0, 0, 1, -125.70422363281247, 0)"/><path fill-rule="evenodd" clip-rule="evenodd" fill="#FF4040" d="M904.3,509.3c0-13.2,11.7-26.1,26.1-26.1s26.1,12.9,26.1,26.1&#10;&#9;&#9;c0,20.3-17.1,26.6-26.1,49.5C921.5,535.8,904.3,529.6,904.3,509.3L904.3,509.3z" transform="matrix(1, 0, 0, 1, -125.70422363281247, 0)"/><path fill-rule="evenodd" clip-rule="evenodd" fill="#FFFFFF" d="M930.5,493.7c8.6,0,15.6,7,15.6,15.6c0,8.6-7,15.6-15.6,15.6&#10;&#9;&#9;c-8.6,0-15.6-7-15.6-15.6C914.8,500.7,921.8,493.7,930.5,493.7L930.5,493.7z" transform="matrix(1, 0, 0, 1, -125.70422363281247, 0)"/>
</svg>