<?xml version="1.0" encoding="utf-8"?>
<svg id="master-artboard" viewBox="0 0 1400 980" version="1.1" xmlns="http://www.w3.org/2000/svg" x="0px" y="0px" width="1400px" height="980px" enable-background="new 0 0 1400 980">
<path fill="#405059" d="M1196.4,552.4C1196.4,278.2,974.1,56,700,56S203.6,278.2,203.6,552.4c0,182.1,98.1,341.3,244.3,427.6&#10;&#9;&#9;&#9;h504.2C1098.3,893.6,1196.4,734.5,1196.4,552.4z" transform="matrix(1.0189454555511475, 0, 0, 1.0189454555511475, -13.261783599853743, -22.456638971145594)" style="fill-opacity: 0.83;"/>

<g transform="matrix(1, 0, 0, 1, 0, -1.4210854715202004e-14)">
		<path fill="#D17A3D" d="M763.7,223.4H635.5c-0.6,3.6-0.9,6.6-1.1,9h130.5C764.7,230,764.3,227,763.7,223.4z"/>
		<path fill="#F18D46" d="M633.4,230.8c-0.1,1.1-0.2,2-0.2,2.7v428.7H766V233.5c0-0.7-0.1-1.6-0.2-2.7H633.4z"/>
		<path fill="#F18D46" d="M699.6,145.1c-27.2,0-60.2,53.9-65.1,78.4h130.2C759.8,199,726.9,145.1,699.6,145.1z"/>
		<path opacity="0.15" fill="#FFFFFF" d="M755.2,685.5V233.7c0-12.8-20.1-88.6-56.4-88.6c-1.2,0-2.3,0.1-3.4,0.2&#10;&#9;&#9;&#9;c-3.2,0.3-6.3,1.1-9.2,2.3c32.2,13.1,44,74.6,44,86.1v451.8H755.2z"/>
	</g><linearGradient id="SVGID_1_" gradientUnits="userSpaceOnUse" x1="802.119" y1="980" x2="802.119" y2="768.4183">
		<stop offset="0" style="stop-color:#F2ECDF;stop-opacity:1.000000e-02"/>
		<stop offset="0.2002" style="stop-color:#F3EADB;stop-opacity:0.1481"/>
		<stop offset="0.4075" style="stop-color:#F4E6CE;stop-opacity:0.2912"/>
		<stop offset="0.6183" style="stop-color:#F7DDBA;stop-opacity:0.4366"/>
		<stop offset="0.83" style="stop-color:#FBD29D;stop-opacity:0.5827"/>
		<stop offset="1" style="stop-color:#FFC780;stop-opacity:0.7"/>
	</linearGradient><path d="M 903.7000122070312 980 L 700.5999755859375 980 L 741.4000244140625 768.4000244140625 L 862.7999877929688 768.4000244140625 Z" fill="url(#SVGID_1_)" transform="matrix(1, 0, 0, 1, 0, -1.4210854715202004e-14)"/><path fill="#F1E5D0" d="M767.5,408.5c-0.1,0.8-0.1,1.5-0.1,2v317.5h69.3V410.5c0-0.5,0-1.2-0.1-2H767.5z" transform="matrix(1, 0, 0, 1, 0, -1.4210854715202004e-14)"/><path d="M 767.400024 681 H 836.700027 V 689.5 H 767.400024 V 681 Z" fill="#E2CDA6" transform="matrix(1, 0, 0, 1, 0, -1.4210854715202004e-14)"/><path d="M 767.400024 718.700012 H 836.700027 V 725.900012 H 767.400024 V 718.700012 Z" fill="#E2CDA6" transform="matrix(1, 0, 0, 1, 0, -1.4210854715202004e-14)"/><path fill="#F1E5D0" d="M802.1,345.8c-21.5,0-31.4,37.9-34,55.1h67.9C833.5,383.7,823.7,345.8,802.1,345.8z" transform="matrix(1, 0, 0, 1, 0, -1.4210854715202004e-14)"/><path fill="#E2CDA6" d="M836.1,399.9h-67.9c-0.3,2-0.5,8-0.6,9.4h69.2C836.6,407.9,836.4,401.9,836.1,399.9z" transform="matrix(1, 0, 0, 1, 0, -1.4210854715202004e-14)"/><path d="M 836.7999877929688 725.5 L 767.4000244140625 725.5 L 741.4000244140625 753.0999755859375 L 862.7999877929688 753.0999755859375 Z" fill="#EDDFC4" transform="matrix(1, 0, 0, 1, 0, -1.4210854715202004e-14)"/><path d="M 741.400024 753.099976 H 862.800026 V 768.399976 H 741.400024 V 753.099976 Z" fill="#405059" transform="matrix(1, 0, 0, 1, 0, -1.4210854715202004e-14)"/><path d="M 805.2999877929688 455.6000061035156 L 822.0999755859375 455.6000061035156 L 822.0999755859375 480.79998779296875 L 805.2999877929688 480.79998779296875 L 805.2999877929688 489.29998779296875 L 836.7999877929688 489.29998779296875 L 836.7999877929688 480.79998779296875 L 830.5 480.79998779296875 L 830.5 455.6000061035156 L 836.7999877929688 455.6000061035156 L 836.7999877929688 447.20001220703125 L 805.2999877929688 447.20001220703125 Z" fill="#4A5962" transform="matrix(1, 0, 0, 1, 0, -1.4210854715202004e-14)"/><path d="M 822.099976 497.700012 H 830.499975 V 523.000011 H 822.099976 V 497.700012 Z" fill="#4A5962" transform="matrix(1, 0, 0, 1, 0, -1.4210854715202004e-14)"/><path d="M 830.5 531.2999877929688 L 805.2999877929688 531.2999877929688 L 805.2999877929688 573.4000244140625 L 813.7000122070312 573.4000244140625 L 813.7000122070312 539.7999877929688 L 822.0999755859375 539.7999877929688 L 822.0999755859375 573.4000244140625 L 836.7999877929688 573.4000244140625 L 836.7999877929688 565 L 830.5 565 Z" fill="#4A5962" transform="matrix(1, 0, 0, 1, 0, -1.4210854715202004e-14)"/><path fill="#4A5962" d="M805.3,623.9h31.5v-8.4h-6.3v-25.3h6.3v-8.4h-31.5V623.9z" transform="matrix(1, 0, 0, 1, 0, -1.4210854715202004e-14)"/><path opacity="0.3" fill="#FFFFFF" d="M831.5,670.2V408.1c0-9-7.8-62.1-29.4-62.2c-0.6,0-1.2,0.1-1.8,0.1&#10;&#9;&#9;&#9;c-1.7,0.2-3.3,0.8-4.8,1.6c16.8,9.2,23,52.4,23,60.5v262.1" transform="matrix(1, 0, 0, 1, 0, -1.4210854715202004e-14)"/><path d="M 862.7999877929688 753.0999755859375 L 767.4000244140625 697 L 767.4000244140625 670.7000122070312 L 836.7999877929688 670.7000122070312 L 836.7999877929688 725.5 Z" opacity="0.1" transform="matrix(1, 0, 0, 1, 0, -1.4210854715202004e-14)"/><linearGradient id="SVGID_2_" gradientUnits="userSpaceOnUse" x1="597.881" y1="977.6277" x2="597.881" y2="768.4183">
		<stop offset="0" style="stop-color:#F2ECDF;stop-opacity:1.000000e-02"/>
		<stop offset="0.2002" style="stop-color:#F3EADB;stop-opacity:0.1481"/>
		<stop offset="0.4075" style="stop-color:#F4E6CE;stop-opacity:0.2912"/>
		<stop offset="0.6183" style="stop-color:#F7DDBA;stop-opacity:0.4366"/>
		<stop offset="0.83" style="stop-color:#FBD29D;stop-opacity:0.5827"/>
		<stop offset="1" style="stop-color:#FFC780;stop-opacity:0.7"/>
	</linearGradient><path d="M 699.4000244140625 977.5999755859375 L 496.29998779296875 977.5999755859375 L 537.2000122070312 768.4000244140625 L 658.5999755859375 768.4000244140625 Z" fill="url(#SVGID_2_)" transform="matrix(1, 0, 0, 1, 0, -1.4210854715202004e-14)"/><path fill="#F1E5D0" d="M562.6,408.5c-0.1,0.8-0.1,1.5-0.1,2v317.5h69.3V410.5c0-0.5,0-1.2-0.1-2H562.6z" transform="matrix(1, 0, 0, 1, 0, -1.4210854715202004e-14)"/><path d="M 562.599976 681 H 631.899979 V 689.5 H 562.599976 V 681 Z" fill="#E2CDA6" transform="matrix(1, 0, 0, 1, 0, -1.4210854715202004e-14)"/><path d="M 562.599976 718.700012 H 631.899979 V 725.900012 H 562.599976 V 718.700012 Z" fill="#E2CDA6" transform="matrix(1, 0, 0, 1, 0, -1.4210854715202004e-14)"/><path fill="#F1E5D0" d="M597.2,345.8c-21.5,0-31.4,37.9-34,55.1h67.9C628.6,383.7,618.8,345.8,597.2,345.8z" transform="matrix(1, 0, 0, 1, 0, -1.4210854715202004e-14)"/><path fill="#E2CDA6" d="M631.2,399.9h-67.9c-0.3,2-0.5,8-0.6,9.4h69.2C631.7,407.9,631.5,401.9,631.2,399.9z" transform="matrix(1, 0, 0, 1, 0, -1.4210854715202004e-14)"/><path d="M 631.9000244140625 725.5 L 562.5999755859375 725.5 L 536.5 753.0999755859375 L 657.9000244140625 753.0999755859375 Z" fill="#EDDFC4" transform="matrix(1, 0, 0, 1, 0, -1.4210854715202004e-14)"/><path d="M 536.5 753.099976 H 657.900002 V 768.399976 H 536.5 V 753.099976 Z" fill="#405059" transform="matrix(1, 0, 0, 1, 0, -1.4210854715202004e-14)"/><path opacity="0.3" fill="#FFFFFF" d="M626.6,637V408.1c0-9-7.8-62.1-29.4-62.2c-0.6,0-1.2,0.1-1.8,0.1c-1.7,0.2-3.3,0.8-4.8,1.6&#10;&#9;&#9;&#9;c16.8,9.2,23,52.4,23,60.5V637" transform="matrix(1, 0, 0, 1, 0, -1.4210854715202004e-14)"/><path d="M 657.9000244140625 753.0999755859375 L 562.5999755859375 697 L 562.5999755859375 670.7000122070312 L 631.9000244140625 670.7000122070312 L 631.9000244140625 725.5 Z" opacity="0.1" transform="matrix(1, 0, 0, 1, 0, -1.4210854715202004e-14)"/><linearGradient id="SVGID_3_" gradientUnits="userSpaceOnUse" x1="700" y1="1017.1985" x2="700" y2="699.2837">
			<stop offset="0" style="stop-color:#95BED3;stop-opacity:0"/>
			<stop offset="1" style="stop-color:#FFC780;stop-opacity:0.9"/>
		</linearGradient><path d="M 808.0999755859375 979.2000122070312 L 591.9000244140625 979.2000122070312 L 639.2999877929688 699.0999755859375 L 758.2999877929688 699.0999755859375 Z" fill="url(#SVGID_3_)" transform="matrix(1, 0, 0, 1, 0, -1.4210854715202004e-14)"/><linearGradient id="SVGID_4_" gradientUnits="userSpaceOnUse" x1="700" y1="1017.1985" x2="700" y2="699.2837">
			<stop offset="0" style="stop-color:#95BED3;stop-opacity:0"/>
			<stop offset="1" style="stop-color:#FFC780;stop-opacity:0.9"/>
		</linearGradient><path d="M 768.7999877929688 979.2000122070312 L 631.2000122070312 979.2000122070312 L 679.4000244140625 699.0999755859375 L 719.5999755859375 699.0999755859375 Z" opacity="0.5" fill="url(#SVGID_4_)" transform="matrix(1, 0, 0, 1, 0, -1.4210854715202004e-14)"/><g transform="matrix(1, 0, 0, 1, 0, -1.4210854715202004e-14)">
			<path d="M 523.5999755859375 670.2000122070312 L 523.5999755859375 636.9000244140625 L 653.7999877929688 463.20001220703125 L 748 463.20001220703125 L 875.7999877929688 637 L 875.7999877929688 670.2000122070312 Z" fill="#E6D5B3"/>
			<path d="M 875.7999877929688 637 L 875.7999877929688 671.5999755859375 L 523.5999755859375 671.5999755859375 L 523.5999755859375 636.9000244140625 Z" fill="#F0E4CE"/>
			<path d="M 523.5999755859375 641.2000122070312 L 523.5999755859375 637 L 531.7000122070312 629.7000122070312 L 866.9000244140625 629.7000122070312 L 875.7999877929688 636.9000244140625 L 875.7999877929688 641.2000122070312 Z" fill="#F5EDDF"/>
			<path d="M 523.5999755859375 636.9000244140625 L 532.0999755859375 625.4000244140625 L 867.2000122070312 625.4000244140625 L 875.7999877929688 637 Z" fill="#E9D9BB"/>
			<path d="M 763.0999755859375 587 L 763.0999755859375 484 L 748.2000122070312 464 L 641.0999755859375 671.5999755859375 L 790.5 671.5999755859375 L 790.5 638.2000122070312 Z" opacity="0.2" fill="#BFAE8D"/>
			<path d="M 638.7000122070312 587 L 638.7000122070312 484 L 653.5999755859375 464 L 760.7000122070312 671.5999755859375 L 611.2999877929688 671.5999755859375 L 611.2999877929688 638.2000122070312 Z" opacity="0.2" fill="#BFAE8D"/>
		</g><path fill="#F1E5D0" d="M746.9,598.3V334.1c0-31.7-11.7-62.2-32.6-84.6c-8.1-8.7-21.3-8.7-29.4,0c-20.8,22.4-32.6,52.9-32.6,84.6&#10;&#9;&#9;&#9;v264.3L625,647.9v34.1h149.4v-34.1L746.9,598.3z" transform="matrix(1, 0, 0, 1, 0, -1.4210854715202004e-14)"/><path d="M 651.700012 590.099976 H 747.700012 V 598.599976 H 651.700012 V 590.099976 Z" fill="#E2CDA6" transform="matrix(1, 0, 0, 1, 0, -1.4210854715202004e-14)"/><path d="M 774.4000244140625 647.9000244140625 L 625 647.9000244140625 L 652.4000244140625 598.7999877929688 L 746.5999755859375 598.7999877929688 Z" fill="#F1E5D0" transform="matrix(1, 0, 0, 1, 0, -1.4210854715202004e-14)"/><path d="M 639.900024 662.700012 H 759.400024 V 699.100014 H 639.900024 V 662.700012 Z" fill="#364750" transform="matrix(1, 0, 0, 1, 0, -1.4210854715202004e-14)"/><path d="M 625 647.900024 H 774.399994 V 683.400024 H 625 V 647.900024 Z" fill="#405059" transform="matrix(1, 0, 0, 1, 0, -1.4210854715202004e-14)"/><path d="M 696.799988 647.900024 H 703.199988 V 683.400024 H 696.799988 V 647.900024 Z" fill="#364750" transform="matrix(1, 0, 0, 1, 0, -1.4210854715202004e-14)"/><path d="M 696.799988 613.799988 H 703.199988 V 647.899986 H 696.799988 V 613.799988 Z" fill="#C1B391" transform="matrix(1, 0, 0, 1, 0, -1.4210854715202004e-14)"/><path d="M 731 683.5 L 731 699.099976 L 743.799988 699.099976 L 743.799988 683.5" opacity="0.2" fill="#95BED3" transform="matrix(1, 0, 0, 1, 0, -1.4210854715202004e-14)"/><path opacity="0.3" fill="#FFFFFF" d="M755.2,683.5V648L736,598.8V309.5c0-9.3-10.2-62.2-38.5-66.3c-1.1-0.2-8.6,3.8-8.6,3.8&#10;&#9;&#9;&#9;c20.7,13.1,28.5,54.4,28.5,62.5v289.3l19.2,49.2v35.4" transform="matrix(1, 0, 0, 1, 0, -1.4210854715202004e-14)"/><path d="M 730.799999 349.399994 A 30.799999 30.799999 0 0 1 700 380.199993 A 30.799999 30.799999 0 0 1 669.200001 349.399994 A 30.799999 30.799999 0 0 1 700 318.599995 A 30.799999 30.799999 0 0 1 730.799999 349.399994 Z" transform="matrix(0.7071000337600708, -0.7071000337600708, 0.7071000337600708, 0.7071000337600708, -42.03519821166992, 597.3087768554688)" fill="#E2CDA6"/><path fill="#7DA0B3" d="M681.5,367.8c-10.2-10.2-10.2-26.7,0-36.9s26.7-10.2,36.9,0" transform="matrix(1, 0, 0, 1, 0, -1.4210854715202004e-14)"/><path fill="#537F98" d="M718.5,330.9c10.2,10.2,10.2,26.7,0,36.9c-10.2,10.2-26.7,10.2-36.9,0" transform="matrix(1, 0, 0, 1, 0, -1.4210854715202004e-14)"/>
<path d="M 822.499976 266.200012 A 6.4 6.4 0 0 1 816.099976 272.600012 A 6.4 6.4 0 0 1 809.699975 266.200012 A 6.4 6.4 0 0 1 816.099976 259.800012 A 6.4 6.4 0 0 1 822.499976 266.200012 Z" fill="#537F98" transform="matrix(1, 0, 0, 1, 0, -1.4210854715202004e-14)"/><path d="M 468.199994 380.200012 A 5.3 5.3 0 0 1 462.899994 385.500012 A 5.3 5.3 0 0 1 457.599994 380.200012 A 5.3 5.3 0 0 1 462.899994 374.900012 A 5.3 5.3 0 0 1 468.199994 380.200012 Z" fill="#537F98" transform="matrix(1, 0, 0, 1, 0, -1.4210854715202004e-14)"/><path d="M 406.7 254.399994 A 5.2 5.2 0 0 1 401.5 259.599994 A 5.2 5.2 0 0 1 396.3 254.399994 A 5.2 5.2 0 0 1 401.5 249.199994 A 5.2 5.2 0 0 1 406.7 254.399994 Z" fill="#537F98" transform="matrix(1, 0, 0, 1, 0, -1.4210854715202004e-14)"/><path d="M 548.099976 218.100006 A 4 4 0 0 1 544.099976 222.100006 A 4 4 0 0 1 540.099976 218.100006 A 4 4 0 0 1 544.099976 214.100006 A 4 4 0 0 1 548.099976 218.100006 Z" fill="#537F98" transform="matrix(1, 0, 0, 1, 0, -1.4210854715202004e-14)"/><path d="M 1068.3 347.399994 A 5.3 5.3 0 0 1 1063 352.699994 A 5.3 5.3 0 0 1 1057.7 347.399994 A 5.3 5.3 0 0 1 1063 342.099994 A 5.3 5.3 0 0 1 1068.3 347.399994 Z" fill="#537F98" transform="matrix(1, 0, 0, 1, 0, -1.4210854715202004e-14)"/><path d="M 315.299988 627.900024 A 4 4 0 0 1 311.299988 631.900024 A 4 4 0 0 1 307.299988 627.900024 A 4 4 0 0 1 311.299988 623.900024 A 4 4 0 0 1 315.299988 627.900024 Z" fill="#537F98" transform="matrix(1, 0, 0, 1, 0, -1.4210854715202004e-14)"/><path d="M 979.700025 593.299988 A 5.3 5.3 0 0 1 974.400024 598.599988 A 5.3 5.3 0 0 1 969.100024 593.299988 A 5.3 5.3 0 0 1 974.400024 587.999988 A 5.3 5.3 0 0 1 979.700025 593.299988 Z" fill="#537F98" transform="matrix(1, 0, 0, 1, 0, -1.4210854715202004e-14)"/><path d="M 916.600024 318.600006 A 5.2 5.2 0 0 1 911.400024 323.800006 A 5.2 5.2 0 0 1 906.200025 318.600006 A 5.2 5.2 0 0 1 911.400024 313.400006 A 5.2 5.2 0 0 1 916.600024 318.600006 Z" fill="#537F98" transform="matrix(1, 0, 0, 1, 0, -1.4210854715202004e-14)"/><path d="M 460.2 530.299988 A 5.2 5.2 0 0 1 455 535.499988 A 5.2 5.2 0 0 1 449.8 530.299988 A 5.2 5.2 0 0 1 455 525.099988 A 5.2 5.2 0 0 1 460.2 530.299988 Z" fill="#537F98" transform="matrix(1, 0, 0, 1, 0, -1.4210854715202004e-14)"/><path d="M 1076.000049 487.799988 A 5.2 5.2 0 0 1 1070.800049 492.999988 A 5.2 5.2 0 0 1 1065.600049 487.799988 A 5.2 5.2 0 0 1 1070.800049 482.599988 A 5.2 5.2 0 0 1 1076.000049 487.799988 Z" fill="#537F98" transform="matrix(1, 0, 0, 1, 0, -1.4210854715202004e-14)"/><path d="M 961.799988 431.200012 A 4 4 0 0 1 957.799988 435.200012 A 4 4 0 0 1 953.799988 431.200012 A 4 4 0 0 1 957.799988 427.200012 A 4 4 0 0 1 961.799988 431.200012 Z" fill="#537F98" transform="matrix(1, 0, 0, 1, 0, -1.4210854715202004e-14)"/><path d="M 856.700012 157.800003 A 4 4 0 0 1 852.700012 161.800003 A 4 4 0 0 1 848.700012 157.800003 A 4 4 0 0 1 852.700012 153.800003 A 4 4 0 0 1 856.700012 157.800003 Z" fill="#537F98" transform="matrix(1, 0, 0, 1, 0, -1.4210854715202004e-14)"/><path d="M 693.599988 108.300003 A 3.8 3.8 0 0 1 689.799988 112.100003 A 3.8 3.8 0 0 1 685.999988 108.300003 A 3.8 3.8 0 0 1 689.799988 104.500003 A 3.8 3.8 0 0 1 693.599988 108.300003 Z" fill="#537F98" transform="matrix(1, 0, 0, 1, 0, -1.4210854715202004e-14)"/><path d="M 332.200012 452.100006 A 6.5 6.5 0 0 1 325.700012 458.600006 A 6.5 6.5 0 0 1 319.200012 452.100006 A 6.5 6.5 0 0 1 325.700012 445.600006 A 6.5 6.5 0 0 1 332.200012 452.100006 Z" fill="#537F98" transform="matrix(1, 0, 0, 1, 0, -1.4210854715202004e-14)"/>

<path fill="#FFCC66" d="M939.2,759.6c-4.2-0.7-7.5-3.9-8.1-8.1c0-0.1-0.2-0.1-0.2,0c-0.6,4.2-3.9,7.4-8.1,8.1c-0.1,0-0.1,0.2,0,0.2&#10;&#9;&#9;c4.2,0.6,7.5,3.9,8.1,8.1c0,0.1,0.2,0.1,0.2,0c0.6-4.2,3.9-7.4,8.1-8.1C939.3,759.8,939.3,759.6,939.2,759.6z" transform="matrix(1, 0, 0, 1, 0, -1.4210854715202004e-14)"/><path fill="#FFCC66" d="M901.9,696.1c0-0.2-0.3-0.2-0.3,0c-1,6.2-5.9,11.1-12.1,12.1c-0.2,0-0.2,0.3,0,0.3&#10;&#9;&#9;c6.2,1,11.2,5.9,12.1,12.1c0,0.2,0.3,0.2,0.3,0c1-6.2,5.9-11.1,12.1-12.1c0.2,0,0.2-0.3,0-0.3C907.7,707.2,902.8,702.3,901.9,696.1&#10;&#9;&#9;z" transform="matrix(1, 0, 0, 1, 0, -1.4210854715202004e-14)"/><path fill="#FFCC66" d="M469.2,751.5c0-0.1-0.2-0.1-0.2,0c-0.6,4.2-3.9,7.4-8.1,8.1c-0.1,0-0.1,0.2,0,0.2c4.2,0.6,7.5,3.9,8.1,8.1&#10;&#9;&#9;c0,0.1,0.2,0.1,0.2,0c0.6-4.2,3.9-7.4,8.1-8.1c0.1,0,0.1-0.2,0-0.2C473.1,758.9,469.8,755.7,469.2,751.5z" transform="matrix(1, 0, 0, 1, 0, -1.4210854715202004e-14)"/><path fill="#FFCC66" d="M498.5,696.1c0-0.2-0.3-0.2-0.3,0c-1,6.2-5.9,11.1-12.1,12.1c-0.2,0-0.2,0.3,0,0.3&#10;&#9;&#9;c6.3,1,11.2,5.9,12.1,12.1c0,0.2,0.3,0.2,0.3,0c1-6.2,5.9-11.1,12.1-12.1c0.2,0,0.2-0.3,0-0.3C504.4,707.2,499.4,702.3,498.5,696.1&#10;&#9;&#9;z" transform="matrix(1, 0, 0, 1, 0, -1.4210854715202004e-14)"/>
</svg>