<?xml version="1.0" encoding="utf-8"?>
<svg id="master-artboard" viewBox="0 0 429.0845031738281 565.774658203125" version="1.1" xmlns="http://www.w3.org/2000/svg" x="0px" y="0px" style="enable-background:new 0 0 1400 980;" width="429.0845031738281px" height="565.774658203125px"><rect id="ee-background" x="0" y="0" width="429.0845031738281" height="565.774658203125" style="fill: white; fill-opacity: 0; pointer-events: none;"/>

<path class="st1" d="M1234.8,838.2h-89.6c-5.6,8-10.2,16.8-13.4,26.7h116.5C1244.9,855,1240.3,846.2,1234.8,838.2z" style="fill: none;" transform="matrix(1, 0, 0, 1, -970.91552734375, -414.225341796875)"/><path class="st1" d="M1190,598.8c-13.8,8.9-25.7,18.1-35.4,28h70.8C1215.7,616.9,1203.8,607.7,1190,598.8z" style="fill: none;" transform="matrix(1, 0, 0, 1, -970.91552734375, -414.225341796875)"/><path class="st1" d="M1190,795.4c-13,9.5-25.4,19.6-35.8,31.5h71.7C1215.4,815,1202.9,804.9,1190,795.4z" style="fill: none;" transform="matrix(1, 0, 0, 1, -970.91552734375, -414.225341796875)"/><path class="st1" d="M1235.1,638.2h-90.4c-6.1,8.1-10.7,16.7-13.9,26.1H1249C1245.9,654.9,1241.2,646.3,1235.1,638.2z" style="fill: none;" transform="matrix(1, 0, 0, 1, -970.91552734375, -414.225341796875)"/><path class="st1" d="M1171.5,571.3c6.4,3.5,12.6,7.1,18.5,10.7c5.9-3.6,12.1-7.2,18.5-10.7c8.3-4.6,15.1-10.1,20.6-16.1h-78.3&#10;&#9;&#9;&#9;C1156.4,561.3,1163.2,566.7,1171.5,571.3z" style="fill: none;" transform="matrix(1, 0, 0, 1, -970.91552734375, -414.225341796875)"/><path class="st1" d="M1142,543.9h95.8c6.2-9.6,9.9-20,12.2-29.9h-120.2C1132.1,523.9,1135.9,534.3,1142,543.9z" style="fill: none;" transform="matrix(1, 0, 0, 1, -970.91552734375, -414.225341796875)"/><path class="st1" d="M1226.8,750.5h-73.6c8.5,7.2,18.4,14.3,29,21.7c2.6,1.8,5.2,3.7,7.8,5.6c2.6-1.9,5.3-3.7,7.8-5.6&#10;&#9;&#9;&#9;C1208.3,764.8,1218.3,757.8,1226.8,750.5z" style="fill: none;" transform="matrix(1, 0, 0, 1, -970.91552734375, -414.225341796875)"/><path class="st1" d="M1251.9,675.6h-124c-1.5,8.1-2,16.7-1.3,26.1h126.7C1253.9,692.4,1253.5,683.7,1251.9,675.6z" style="fill: none;" transform="matrix(1, 0, 0, 1, -970.91552734375, -414.225341796875)"/><path class="st1" d="M1252,713.1h-124c1.6,9.6,6.4,18.1,13.4,26.1h97.2C1245.6,731.2,1250.4,722.7,1252,713.1z" style="fill: none;" transform="matrix(1, 0, 0, 1, -970.91552734375, -414.225341796875)"/><path class="st2" d="M1250,514c0.9-3.9,1.5-7.7,2-11.4h-124.1c0.5,3.7,1.1,7.5,2,11.4H1250z" style="fill: rgb(67, 91, 146);" transform="matrix(1, 0, 0, 1, -970.91552734375, -414.225341796875)"/><path class="st2" d="M1150.8,555.3h78.3c3.4-3.6,6.3-7.4,8.8-11.4H1142C1144.5,547.8,1147.5,551.6,1150.8,555.3z" style="fill: rgb(67, 91, 146);" transform="matrix(1, 0, 0, 1, -970.91552734375, -414.225341796875)"/><path class="st2" d="M1225.3,626.8h-70.8c-3.6,3.7-6.8,7.5-9.8,11.4h90.4C1232.2,634.3,1228.9,630.5,1225.3,626.8z" style="fill: rgb(67, 91, 146);" transform="matrix(1, 0, 0, 1, -970.91552734375, -414.225341796875)"/><path class="st2" d="M1249,664.3h-118.1c-1.2,3.7-2.2,7.5-2.9,11.4h124C1251.2,671.7,1250.2,667.9,1249,664.3z" style="fill: rgb(67, 91, 146);" transform="matrix(1, 0, 0, 1, -970.91552734375, -414.225341796875)"/><path class="st2" d="M1252,712.9c0.6-3.8,1-7.6,1.3-11.2h-126.7c0.3,3.6,0.7,7.4,1.3,11.2c0,0.1,0,0.1,0,0.2h124&#10;&#9;&#9;&#9;C1252,713,1252,713,1252,712.9z" style="fill: rgb(67, 91, 146);" transform="matrix(1, 0, 0, 1, -970.91552734375, -414.225341796875)"/><path class="st2" d="M1238.5,739.2h-97.2c3.4,3.9,7.4,7.7,11.8,11.4h73.6C1231.1,746.8,1235.1,743,1238.5,739.2z" style="fill: rgb(67, 91, 146);" transform="matrix(1, 0, 0, 1, -970.91552734375, -414.225341796875)"/><path class="st2" d="M1225.8,826.8h-71.7c-3.2,3.6-6.2,7.4-9,11.4h89.6C1232,834.2,1229,830.5,1225.8,826.8z" style="fill: rgb(67, 91, 146);" transform="matrix(1, 0, 0, 1, -970.91552734375, -414.225341796875)"/><path class="st2" d="M1131.7,864.9c-1.2,3.6-2.2,7.4-3.1,11.4h122.6c-0.8-3.9-1.9-7.7-3.1-11.4H1131.7z" style="fill: rgb(67, 91, 146);" transform="matrix(1, 0, 0, 1, -970.91552734375, -414.225341796875)"/><path class="st3" d="M1202,786.7c1.3-0.9,2.6-1.9,4-2.8c28.5-20.1,55.4-39.2,60-68.7c9-57.5-17.1-93.6-62.8-124.5&#10;&#9;&#9;&#9;c3.9-2.3,7.9-4.6,12.1-6.9c65.4-36.2,50.1-119.5,50-120.4l-14,2.7c0.3,1.4,3.1,17,0.7,36.6c-0.5,3.7-1.1,7.5-2,11.4&#10;&#9;&#9;&#9;c-2.2,9.9-6,20.2-12.2,29.9c-2.5,3.9-5.4,7.7-8.8,11.4c-5.6,6-12.3,11.5-20.6,16.1c-6.4,3.5-12.6,7.1-18.5,10.7&#10;&#9;&#9;&#9;c-5.9-3.6-12.1-7.2-18.5-10.7c-8.3-4.6-15.1-10.1-20.6-16.1c-3.4-3.6-6.3-7.4-8.8-11.4c-6.2-9.6-9.9-20-12.2-29.9&#10;&#9;&#9;&#9;c-0.9-3.9-1.5-7.7-2-11.4c-2.4-19.6,0.4-35.2,0.7-36.6l-14-2.7c-0.2,0.8-15.4,84.2,50,120.4c4.1,2.3,8.2,4.6,12.1,6.9&#10;&#9;&#9;&#9;c-45.7,30.9-71.8,67-62.8,124.5c4.6,29.6,31.6,48.6,60,68.7c1.3,0.9,2.6,1.9,4,2.8c-36,27.2-71.5,63.3-65,129l14.2-1.4&#10;&#9;&#9;&#9;c-1.4-14.2-0.7-26.7,1.7-38c0.8-3.9,1.9-7.7,3.1-11.4c3.3-9.9,7.9-18.7,13.4-26.7c2.8-4,5.8-7.8,9-11.4&#10;&#9;&#9;&#9;c10.4-11.8,22.9-21.9,35.8-31.5c13,9.5,25.4,19.6,35.8,31.5c3.2,3.6,6.2,7.4,9,11.4c5.6,8,10.2,16.8,13.4,26.7&#10;&#9;&#9;&#9;c1.2,3.6,2.2,7.4,3.1,11.4c2.3,11.3,3,23.8,1.7,38l14.2,1.4C1273.5,850,1238,813.9,1202,786.7z M1182.1,772.3&#10;&#9;&#9;&#9;c-10.5-7.4-20.5-14.5-29-21.7c-4.4-3.7-8.3-7.5-11.8-11.4c-7-7.9-11.9-16.4-13.4-26.1c0-0.1,0-0.1,0-0.2c-0.6-3.8-1-7.6-1.3-11.2&#10;&#9;&#9;&#9;c-0.7-9.3-0.2-18,1.3-26.1c0.7-3.9,1.7-7.7,2.9-11.4c3.1-9.4,7.8-18,13.9-26.1c2.9-3.9,6.2-7.7,9.8-11.4&#10;&#9;&#9;&#9;c9.7-9.9,21.6-19.1,35.4-28c13.8,8.9,25.7,18.1,35.4,28c3.6,3.7,6.8,7.5,9.8,11.4c6.1,8.1,10.7,16.7,13.9,26.1&#10;&#9;&#9;&#9;c1.2,3.7,2.2,7.5,2.9,11.4c1.5,8.1,2,16.7,1.3,26.1c-0.3,3.6-0.7,7.4-1.3,11.2c0,0.1,0,0.1,0,0.2c-1.6,9.6-6.4,18.1-13.4,26.1&#10;&#9;&#9;&#9;c-3.4,3.9-7.4,7.7-11.8,11.4c-8.5,7.2-18.4,14.3-29,21.7c-2.6,1.8-5.2,3.7-7.8,5.6C1187.3,775.9,1184.7,774.1,1182.1,772.3z" style="fill: rgb(235, 129, 94);" transform="matrix(1, 0, 0, 1, -970.91552734375, -414.225341796875)"/>

</svg>