<svg id="Layer_1" data-name="Layer 1" xmlns="http://www.w3.org/2000/svg" xmlns:xlink="http://www.w3.org/1999/xlink" viewBox="0 0 1920 1080"><defs><style>.cls-1{fill:#fff;}.cls-2{fill:#156db3;}.cls-3{fill:url(#linear-gradient);}.cls-4{fill:#942381;}.cls-5{fill:url(#linear-gradient-2);}.cls-6{fill:url(#linear-gradient-3);}.cls-7{fill:url(#linear-gradient-4);}.cls-8{fill:url(#linear-gradient-5);}.cls-9{fill:url(#linear-gradient-6);}.cls-10{fill:url(#linear-gradient-7);}.cls-11{fill:url(#linear-gradient-8);}.cls-12{fill:#3ea9e0;}.cls-13{fill:url(#linear-gradient-9);}.cls-14{fill:url(#linear-gradient-10);}.cls-15{fill:#e61771;}.cls-16{fill:url(#linear-gradient-11);}.cls-17{fill:url(#linear-gradient-12);}.cls-18{fill:url(#linear-gradient-13);}.cls-19{fill:url(#linear-gradient-14);}.cls-20{fill:url(#linear-gradient-15);}</style><linearGradient id="linear-gradient" x1="1077.19" y1="98.7" x2="789.07" y2="597.73" gradientUnits="userSpaceOnUse"><stop offset="0" stop-color="#fff" stop-opacity="0.6"/><stop offset="0.33" stop-color="#fff" stop-opacity="0.38"/><stop offset="0.79" stop-color="#fff" stop-opacity="0.11"/><stop offset="1" stop-color="#fff" stop-opacity="0"/></linearGradient><linearGradient id="linear-gradient-2" x1="1169.95" y1="152.26" x2="881.83" y2="651.29" xlink:href="#linear-gradient"/><linearGradient id="linear-gradient-3" x1="1014" y1="62.22" x2="725.89" y2="561.26" xlink:href="#linear-gradient"/><linearGradient id="linear-gradient-4" x1="1097.65" y1="110.52" x2="809.53" y2="609.55" xlink:href="#linear-gradient"/><linearGradient id="linear-gradient-5" x1="1193.6" y1="165.91" x2="905.48" y2="664.94" xlink:href="#linear-gradient"/><linearGradient id="linear-gradient-6" x1="1101.74" y1="112.88" x2="813.62" y2="611.91" xlink:href="#linear-gradient"/><linearGradient id="linear-gradient-7" x1="1015.36" y1="63.01" x2="727.25" y2="562.04" xlink:href="#linear-gradient"/><linearGradient id="linear-gradient-8" x1="1197.09" y1="167.93" x2="908.97" y2="666.96" xlink:href="#linear-gradient"/><linearGradient id="linear-gradient-9" x1="977.93" y1="41.39" x2="689.81" y2="540.43" xlink:href="#linear-gradient"/><linearGradient id="linear-gradient-10" x1="980.54" y1="42.9" x2="692.43" y2="541.94" xlink:href="#linear-gradient"/><linearGradient id="linear-gradient-11" x1="1175.82" y1="155.65" x2="887.7" y2="654.68" xlink:href="#linear-gradient"/><linearGradient id="linear-gradient-12" x1="1076.9" y1="98.53" x2="788.78" y2="597.57" xlink:href="#linear-gradient"/><linearGradient id="linear-gradient-13" x1="1100.29" y1="112.04" x2="812.18" y2="611.07" xlink:href="#linear-gradient"/><linearGradient id="linear-gradient-14" x1="1053.42" y1="84.98" x2="765.31" y2="584.01" xlink:href="#linear-gradient"/><linearGradient id="linear-gradient-15" x1="1172.88" y1="153.95" x2="884.77" y2="652.98" xlink:href="#linear-gradient"/></defs><title>STORY LOGO</title><path class="cls-1" d="M286.85,875.55c9.1,30.06,30.43,51.64,78.48,51.64,49.24,0,69.84-20.61,69.84-45,0-25.66-13.5-41.9-77.21-52.58-62.21-10.47-79.5-29.55-79.5-60.46,0-36.79,34.59-59.21,81.44-59.21,71.14,0,86.42,37.6,88.94,58.55H428.52c-5.32-17.54-16-40.71-69-40.71-35.76,0-60.75,12.53-60.75,39.4,0,21.28,9.15,35.63,65,44.75,79.05,13,92,37.94,92,68.29,0,34.19-27.52,64.51-91.22,64.51-59,0-90.82-27.23-98.38-69.17Z"/><path class="cls-1" d="M625.32,732.88h-89.4V714.66H734.74v18.22h-89.4V940h-20Z"/><path class="cls-1" d="M1043.51,826.69c0,64.34-43.82,118-116,118-70.51,0-116.84-52.08-116.84-118.34,0-62.79,46.69-116.47,116.89-116.47C996,709.92,1043.51,763.61,1043.51,826.69Zm-211.82-1.24c0,51.56,33.81,101.07,95.9,101.07,60.27,0,94.92-43.75,94.92-99.2,0-50.26-34.69-99.19-96.82-99.19C868.55,728.13,831.69,772.75,831.69,825.45Z"/><path class="cls-1" d="M1179.5,837.45V940h-19.69V714.66h99.6c43.12,0,74.64,18.77,74.64,59.44,0,26.26-11.79,46.69-42.23,53.95,17.81,4.4,36.24,17,36.24,55.8v9.2c0,18.24,0,38.07,2.53,46.94h-20c-3.17-9.78-2.26-28.91-2.26-45.17v-7.57c0-38.78-15.31-49.8-58.32-49.8Zm0-18.17h74.09c39.79,0,60.12-13.79,60.12-44.78,0-28.17-20.33-41.67-58.56-41.67H1179.5Z"/><path class="cls-1" d="M1517.35,940V851.48a7.1,7.1,0,0,0-1.91-4.79l-95-132h23.63c28.58,40.29,73.64,100.81,83.76,118.25,11.05-17.75,53.66-78,82.55-118.25H1633l-94.37,132.08a8,8,0,0,0-1.57,5.07V940Z"/><path class="cls-2" d="M965.05,223.38a91.51,91.51,0,0,1,33.39,6.74q17.23,6.72,34.47,20.73l39.7-77.89-111,50.5C962.73,223.42,963.88,223.38,965.05,223.38Z"/><path class="cls-3" d="M965.05,223.38a91.51,91.51,0,0,1,33.39,6.74q17.23,6.72,34.47,20.73l39.7-77.89-111,50.5C962.73,223.42,963.88,223.38,965.05,223.38Z"/><path class="cls-4" d="M1067.65,351.29q-12.83-15.41-33.58-27.51a3.84,3.84,0,0,1-.43,1.2l-48.33,84.36,95.07-38.12A95.27,95.27,0,0,0,1067.65,351.29Z"/><path class="cls-5" d="M1067.65,351.29q-12.83-15.41-33.58-27.51a3.84,3.84,0,0,1-.43,1.2l-48.33,84.36,95.07-38.12A95.27,95.27,0,0,0,1067.65,351.29Z"/><path class="cls-2" d="M817.75,319a96.36,96.36,0,0,0,24.78,32.58,126,126,0,0,0,35,20.74q4.89,1.95,9.83,3.81l52.5-82.6L813.22,307.12A82.11,82.11,0,0,0,817.75,319Z"/><path class="cls-6" d="M817.75,319a96.36,96.36,0,0,0,24.78,32.58,126,126,0,0,0,35,20.74q4.89,1.95,9.83,3.81l52.5-82.6L813.22,307.12A82.11,82.11,0,0,0,817.75,319Z"/><path class="cls-2" d="M947,397.34a86.16,86.16,0,0,1,19.66,10.5,42.51,42.51,0,0,1,5,4.31l-26-113.57-51,80.18q11.37,4.11,23,7.8Q934.88,392.5,947,397.34Z"/><path class="cls-7" d="M947,397.34a86.16,86.16,0,0,1,19.66,10.5,42.51,42.51,0,0,1,5,4.31l-26-113.57-51,80.18q11.37,4.11,23,7.8Q934.88,392.5,947,397.34Z"/><path class="cls-4" d="M987.4,416.67l102.24,35.68a165.57,165.57,0,0,0,2-25.93q0-27.14-8.24-48.23Z"/><path class="cls-8" d="M987.4,416.67l102.24,35.68a165.57,165.57,0,0,0,2-25.93q0-27.14-8.24-48.23Z"/><path class="cls-2" d="M1027.81,320.31A236,236,0,0,0,992,305.24q-12.93-4.31-26.12-8.08-7.35-2.09-13.85-4.61l26.13,114.07,48.93-85.41A3.83,3.83,0,0,1,1027.81,320.31Z"/><path class="cls-9" d="M1027.81,320.31A236,236,0,0,0,992,305.24q-12.93-4.31-26.12-8.08-7.35-2.09-13.85-4.61l26.13,114.07,48.93-85.41A3.83,3.83,0,0,1,1027.81,320.31Z"/><path class="cls-2" d="M828.32,297.87,938,286.08a52.71,52.71,0,0,1-12.81-9.92q-6.47-7-6.47-17.78a30.35,30.35,0,0,1,3.73-15Z"/><path class="cls-10" d="M828.32,297.87,938,286.08a52.71,52.71,0,0,1-12.81-9.92q-6.47-7-6.47-17.78a30.35,30.35,0,0,1,3.73-15Z"/><path class="cls-4" d="M1023.11,543.11a3.75,3.75,0,0,1,.95,1.33,130.31,130.31,0,0,0,26.35-18.12,118,118,0,0,0,30.7-43.35,131.72,131.72,0,0,0,7.13-23.08L982.67,423Z"/><path class="cls-11" d="M1023.11,543.11a3.75,3.75,0,0,1,.95,1.33,130.31,130.31,0,0,0,26.35-18.12,118,118,0,0,0,30.7-43.35,131.72,131.72,0,0,0,7.13-23.08L982.67,423Z"/><path class="cls-12" d="M930.05,230.2l-88.3-52.89-.08-.06a122.58,122.58,0,0,0-23.38,37.24q-10,24.51-10,54.67a144.45,144.45,0,0,0,2.84,29.89Z"/><path class="cls-13" d="M930.05,230.2l-88.3-52.89-.08-.06a122.58,122.58,0,0,0-23.38,37.24q-10,24.51-10,54.67a144.45,144.45,0,0,0,2.84,29.89Z"/><path class="cls-12" d="M953.16,135.64c-1.43,0-2.85,0-4.26,0q-32.32,0-58.44,9.69-25.53,9.47-43.33,26.41l87.75,52.56Z"/><path class="cls-14" d="M953.16,135.64c-1.43,0-2.85,0-4.26,0q-32.32,0-58.44,9.69-25.53,9.47-43.33,26.41l87.75,52.56Z"/><path class="cls-15" d="M921.28,479.63l-5.91,83.94q9.4.72,19,.71,37.17,0,66.51-9.95a171.07,171.07,0,0,0,15.91-6.31l-.08-.23Z"/><path class="cls-16" d="M921.28,479.63l-5.91,83.94q9.4.72,19,.71,37.17,0,66.51-9.95a171.07,171.07,0,0,0,15.91-6.31l-.08-.23Z"/><path class="cls-15" d="M883.73,464.65q-23.16-10.23-46.85-31.24l-43,80.83,113.75-41.72A122.6,122.6,0,0,1,883.73,464.65Z"/><path class="cls-17" d="M883.73,464.65q-23.16-10.23-46.85-31.24l-43,80.83,113.75-41.72A122.6,122.6,0,0,1,883.73,464.65Z"/><path class="cls-15" d="M907.82,562.88l5.95-84.53L796.05,521.52Q848.39,556.58,907.82,562.88Z"/><path class="cls-18" d="M907.82,562.88l5.95-84.53L796.05,521.52Q848.39,556.58,907.82,562.88Z"/><path class="cls-12" d="M1069.94,165.86a278,278,0,0,0-58-21.92,265.59,265.59,0,0,0-51.11-8c0,.1,0,.2,0,.3l-18,87.5Z"/><path class="cls-19" d="M1069.94,165.86a278,278,0,0,0-58-21.92,265.59,265.59,0,0,0-51.11-8c0,.1,0,.2,0,.3l-18,87.5Z"/><path class="cls-4" d="M980.43,440.13Q978.95,452.79,968,463q-12.66,11.85-38.5,11.84l-1.88,0,84.93,60.66Z"/><path class="cls-20" d="M980.43,440.13Q978.95,452.79,968,463q-12.66,11.85-38.5,11.84l-1.88,0,84.93,60.66Z"/></svg>