<svg id="Layer_1" data-name="Layer 1" xmlns="http://www.w3.org/2000/svg" xmlns:xlink="http://www.w3.org/1999/xlink" viewBox="0 0 1366.78 857.13"><defs><style>.cls-1{fill:#fff;}.cls-2{fill:#156db3;}.cls-3{fill:url(#linear-gradient);}.cls-4{fill:#942381;}.cls-5{fill:url(#linear-gradient-2);}.cls-6{fill:url(#linear-gradient-3);}.cls-7{fill:url(#linear-gradient-4);}.cls-8{fill:url(#linear-gradient-5);}.cls-9{fill:url(#linear-gradient-6);}.cls-10{fill:url(#linear-gradient-7);}.cls-11{fill:url(#linear-gradient-8);}.cls-12{fill:#3ea9e0;}.cls-13{fill:url(#linear-gradient-9);}.cls-14{fill:url(#linear-gradient-10);}.cls-15{fill:#e61771;}.cls-16{fill:url(#linear-gradient-11);}.cls-17{fill:url(#linear-gradient-12);}.cls-18{fill:url(#linear-gradient-13);}.cls-19{fill:url(#linear-gradient-14);}.cls-20{fill:url(#linear-gradient-15);}</style><linearGradient id="linear-gradient" x1="837.2" y1="855.29" x2="549.08" y2="356.26" gradientTransform="matrix(1, 0, 0, -1, -26.22, 842.4)" gradientUnits="userSpaceOnUse"><stop offset="0" stop-color="#fff" stop-opacity="0.6"/><stop offset="0.33" stop-color="#fff" stop-opacity="0.38"/><stop offset="0.79" stop-color="#fff" stop-opacity="0.11"/><stop offset="1" stop-color="#fff" stop-opacity="0"/></linearGradient><linearGradient id="linear-gradient-2" x1="929.95" y1="801.74" x2="641.83" y2="302.71" xlink:href="#linear-gradient"/><linearGradient id="linear-gradient-3" x1="774" y1="891.78" x2="485.89" y2="392.74" xlink:href="#linear-gradient"/><linearGradient id="linear-gradient-4" x1="857.67" y1="843.47" x2="569.55" y2="344.44" xlink:href="#linear-gradient"/><linearGradient id="linear-gradient-5" x1="953.6" y1="788.09" x2="665.48" y2="289.06" xlink:href="#linear-gradient"/><linearGradient id="linear-gradient-6" x1="861.75" y1="841.11" x2="573.63" y2="342.08" xlink:href="#linear-gradient"/><linearGradient id="linear-gradient-7" x1="775.35" y1="890.99" x2="487.24" y2="391.96" xlink:href="#linear-gradient"/><linearGradient id="linear-gradient-8" x1="957.09" y1="786.07" x2="668.97" y2="287.04" xlink:href="#linear-gradient"/><linearGradient id="linear-gradient-9" x1="737.92" y1="912.61" x2="449.8" y2="413.57" xlink:href="#linear-gradient"/><linearGradient id="linear-gradient-10" x1="740.56" y1="911.09" x2="452.45" y2="412.05" xlink:href="#linear-gradient"/><linearGradient id="linear-gradient-11" x1="935.82" y1="798.35" x2="647.7" y2="299.32" xlink:href="#linear-gradient"/><linearGradient id="linear-gradient-12" x1="836.89" y1="855.47" x2="548.77" y2="356.43" xlink:href="#linear-gradient"/><linearGradient id="linear-gradient-13" x1="860.29" y1="841.96" x2="572.18" y2="342.93" xlink:href="#linear-gradient"/><linearGradient id="linear-gradient-14" x1="813.44" y1="869.01" x2="525.33" y2="369.98" xlink:href="#linear-gradient"/><linearGradient id="linear-gradient-15" x1="932.86" y1="800.06" x2="644.75" y2="301.03" xlink:href="#linear-gradient"/></defs><title>STORY LOGO</title><path class="cls-1" d="M20.63,764c9.1,30.06,30.43,51.64,78.48,51.64,49.24,0,69.84-20.61,69.84-45,0-25.66-13.5-41.9-77.21-52.58-62.21-10.47-79.5-29.55-79.5-60.46,0-36.79,34.59-59.21,81.44-59.21,71.14,0,86.42,37.6,88.94,58.55H162.3c-5.32-17.54-16-40.71-69-40.71-35.76,0-60.75,12.53-60.75,39.4,0,21.28,9.15,35.63,65,44.75,79.05,13,92,37.94,92,68.29,0,34.19-27.52,64.51-91.22,64.51C39.38,833.13,7.51,805.9,0,764Z"/><path class="cls-1" d="M359.1,621.28H269.7V603.06H468.52v18.22h-89.4V828.4h-20Z"/><path class="cls-1" d="M777.29,715.09c0,64.34-43.82,118-116,118-70.51,0-116.84-52.08-116.84-118.34,0-62.79,46.69-116.47,116.89-116.47C729.78,598.32,777.29,652,777.29,715.09Zm-211.82-1.24c0,51.56,33.81,101.07,95.9,101.07,60.27,0,94.92-43.75,94.92-99.2,0-50.26-34.69-99.19-96.82-99.19C602.33,616.53,565.47,661.15,565.47,713.85Z"/><path class="cls-1" d="M913.28,725.85V828.4H893.59V603.06h99.6c43.12,0,74.64,18.77,74.64,59.44,0,26.26-11.79,46.69-42.23,54,17.81,4.4,36.24,17,36.24,55.8v9.2c0,18.24,0,38.07,2.53,46.94h-20c-3.17-9.78-2.26-28.91-2.26-45.17v-7.57c0-38.78-15.31-49.8-58.32-49.8Zm0-18.17h74.09c39.79,0,60.12-13.79,60.12-44.78,0-28.17-20.33-41.67-58.56-41.67H913.28Z"/><path class="cls-1" d="M1251.13,828.4V739.88a7.1,7.1,0,0,0-1.91-4.79l-95-132h23.63c28.58,40.29,73.64,100.81,83.76,118.25,11.05-17.75,53.66-78,82.55-118.25h22.62l-94.37,132.08a8,8,0,0,0-1.57,5.07V828.4Z"/><path class="cls-2" d="M698.83,111.78a91.52,91.52,0,0,1,33.39,6.74q17.24,6.72,34.47,20.73l39.7-77.85-111,50.5C696.51,111.82,697.66,111.78,698.83,111.78Z"/><path class="cls-3" d="M698.83,111.78a91.52,91.52,0,0,1,33.39,6.74q17.24,6.72,34.47,20.73l39.7-77.85-111,50.5C696.51,111.82,697.66,111.78,698.83,111.78Z"/><path class="cls-4" d="M801.43,239.69q-12.82-15.41-33.58-27.51a3.92,3.92,0,0,1-.43,1.2l-48.33,84.36,95.07-38.12A95.42,95.42,0,0,0,801.43,239.69Z"/><path class="cls-5" d="M801.43,239.69q-12.82-15.41-33.58-27.51a3.92,3.92,0,0,1-.43,1.2l-48.33,84.36,95.07-38.12A95.42,95.42,0,0,0,801.43,239.69Z"/><path class="cls-2" d="M551.53,207.4A96.31,96.31,0,0,0,576.31,240a126.15,126.15,0,0,0,35,20.74q4.89,2,9.83,3.81l52.5-82.6L547,195.52A82.78,82.78,0,0,0,551.53,207.4Z"/><path class="cls-6" d="M551.53,207.4A96.31,96.31,0,0,0,576.31,240a126.15,126.15,0,0,0,35,20.74q4.89,2,9.83,3.81l52.5-82.6L547,195.52A82.78,82.78,0,0,0,551.53,207.4Z"/><path class="cls-2" d="M680.78,285.74a85.85,85.85,0,0,1,19.66,10.5,41,41,0,0,1,5,4.31L679.44,187l-51,80.18q11.37,4.11,23,7.8Q668.66,280.9,680.78,285.74Z"/><path class="cls-7" d="M680.78,285.74a85.85,85.85,0,0,1,19.66,10.5,41,41,0,0,1,5,4.31L679.44,187l-51,80.18q11.37,4.11,23,7.8Q668.66,280.9,680.78,285.74Z"/><path class="cls-4" d="M721.18,305.07l102.24,35.68a165.59,165.59,0,0,0,2-25.93q0-27.13-8.24-48.23Z"/><path class="cls-8" d="M721.18,305.07l102.24,35.68a165.59,165.59,0,0,0,2-25.93q0-27.13-8.24-48.23Z"/><path class="cls-2" d="M761.59,208.71a235.77,235.77,0,0,0-35.81-15.07q-12.93-4.3-26.12-8.08-7.35-2.09-13.85-4.61L711.94,295l48.93-85.41A3.7,3.7,0,0,1,761.59,208.71Z"/><path class="cls-9" d="M761.59,208.71a235.77,235.77,0,0,0-35.81-15.07q-12.93-4.3-26.12-8.08-7.35-2.09-13.85-4.61L711.94,295l48.93-85.41A3.7,3.7,0,0,1,761.59,208.71Z"/><path class="cls-2" d="M562.1,186.27l109.68-11.79A52.58,52.58,0,0,1,659,164.56q-6.47-7-6.47-17.78a30.32,30.32,0,0,1,3.73-15Z"/><path class="cls-10" d="M562.1,186.27l109.68-11.79A52.58,52.58,0,0,1,659,164.56q-6.47-7-6.47-17.78a30.32,30.32,0,0,1,3.73-15Z"/><path class="cls-4" d="M756.89,431.51a3.82,3.82,0,0,1,1,1.33,130.68,130.68,0,0,0,26.35-18.12,118.06,118.06,0,0,0,30.7-43.32A131.38,131.38,0,0,0,822,348.32L716.45,311.4Z"/><path class="cls-11" d="M756.89,431.51a3.82,3.82,0,0,1,1,1.33,130.68,130.68,0,0,0,26.35-18.12,118.06,118.06,0,0,0,30.7-43.32A131.38,131.38,0,0,0,822,348.32L716.45,311.4Z"/><path class="cls-12" d="M663.83,118.6l-88.3-52.89-.08-.06a122.74,122.74,0,0,0-23.38,37.24q-10,24.51-10,54.67a145,145,0,0,0,2.84,29.89Z"/><path class="cls-13" d="M663.83,118.6l-88.3-52.89-.08-.06a122.74,122.74,0,0,0-23.38,37.24q-10,24.51-10,54.67a145,145,0,0,0,2.84,29.89Z"/><path class="cls-12" d="M686.94,24h-4.26q-32.32,0-58.44,9.69-25.53,9.47-43.33,26.41l87.75,52.56Z"/><path class="cls-14" d="M686.94,24h-4.26q-32.32,0-58.44,9.69-25.53,9.47-43.33,26.41l87.75,52.56Z"/><path class="cls-15" d="M655.06,368,649.15,452q9.4.72,19,.71,37.17,0,66.51-9.95,8.1-2.76,15.89-6.33l-.08-.23Z"/><path class="cls-16" d="M655.06,368,649.15,452q9.4.72,19,.71,37.17,0,66.51-9.95,8.1-2.76,15.89-6.33l-.08-.23Z"/><path class="cls-15" d="M617.51,353.05q-23.16-10.23-46.85-31.24l-43,80.83,113.75-41.72A123.23,123.23,0,0,1,617.51,353.05Z"/><path class="cls-17" d="M617.51,353.05q-23.16-10.23-46.85-31.24l-43,80.83,113.75-41.72A123.23,123.23,0,0,1,617.51,353.05Z"/><path class="cls-15" d="M641.6,451.28l5.95-84.53L529.83,409.92Q582.17,445,641.6,451.28Z"/><path class="cls-18" d="M641.6,451.28l5.95-84.53L529.83,409.92Q582.17,445,641.6,451.28Z"/><path class="cls-12" d="M803.72,54.26a277.85,277.85,0,0,0-58-21.92,266.09,266.09,0,0,0-51.11-8v.3l-18,87.5Z"/><path class="cls-19" d="M803.72,54.26a277.85,277.85,0,0,0-58-21.92,266.09,266.09,0,0,0-51.11-8v.3l-18,87.5Z"/><path class="cls-4" d="M714.21,328.53q-1.49,12.66-12.43,22.87-12.66,11.85-38.5,11.84H661.4l84.93,60.66Z"/><path class="cls-20" d="M714.21,328.53q-1.49,12.66-12.43,22.87-12.66,11.85-38.5,11.84H661.4l84.93,60.66Z"/></svg>