<svg id="Layer_1" data-name="Layer 1" xmlns="http://www.w3.org/2000/svg" xmlns:xlink="http://www.w3.org/1999/xlink" viewBox="0 0 1366 768"><defs><style>.cls-1{fill:#156db3;}.cls-2{fill:url(#linear-gradient);}.cls-3{fill:#942381;}.cls-4{fill:url(#linear-gradient-2);}.cls-5{fill:url(#linear-gradient-3);}.cls-6{fill:url(#linear-gradient-4);}.cls-7{fill:url(#linear-gradient-5);}.cls-8{fill:url(#linear-gradient-6);}.cls-9{fill:url(#linear-gradient-7);}.cls-10{fill:url(#linear-gradient-8);}.cls-11{fill:#3ea9e0;}.cls-12{fill:url(#linear-gradient-9);}.cls-13{fill:url(#linear-gradient-10);}.cls-14{fill:#e61771;}.cls-15{fill:url(#linear-gradient-11);}.cls-16{fill:url(#linear-gradient-12);}.cls-17{fill:url(#linear-gradient-13);}.cls-18{fill:url(#linear-gradient-14);}.cls-19{fill:url(#linear-gradient-15);}</style><linearGradient id="linear-gradient" x1="843.51" y1="58.03" x2="480.28" y2="687.17" gradientUnits="userSpaceOnUse"><stop offset="0" stop-color="#fff" stop-opacity="0.6"/><stop offset="0.33" stop-color="#fff" stop-opacity="0.38"/><stop offset="0.79" stop-color="#fff" stop-opacity="0.11"/><stop offset="1" stop-color="#fff" stop-opacity="0"/></linearGradient><linearGradient id="linear-gradient-2" x1="960.46" y1="125.55" x2="597.23" y2="754.69" xlink:href="#linear-gradient"/><linearGradient id="linear-gradient-3" x1="763.86" y1="12.04" x2="400.62" y2="641.18" xlink:href="#linear-gradient"/><linearGradient id="linear-gradient-4" x1="869.31" y1="72.93" x2="506.08" y2="702.07" xlink:href="#linear-gradient"/><linearGradient id="linear-gradient-5" x1="990.27" y1="142.77" x2="627.04" y2="771.9" xlink:href="#linear-gradient"/><linearGradient id="linear-gradient-6" x1="874.47" y1="75.9" x2="511.23" y2="705.04" xlink:href="#linear-gradient"/><linearGradient id="linear-gradient-7" x1="765.57" y1="13.03" x2="402.34" y2="642.17" xlink:href="#linear-gradient"/><linearGradient id="linear-gradient-8" x1="994.67" y1="145.31" x2="631.44" y2="774.45" xlink:href="#linear-gradient"/><linearGradient id="linear-gradient-9" x1="718.37" y1="-14.22" x2="355.14" y2="614.92" xlink:href="#linear-gradient"/><linearGradient id="linear-gradient-10" x1="721.67" y1="-12.31" x2="358.44" y2="616.83" xlink:href="#linear-gradient"/><linearGradient id="linear-gradient-11" x1="967.86" y1="129.82" x2="604.62" y2="758.96" xlink:href="#linear-gradient"/><linearGradient id="linear-gradient-12" x1="843.15" y1="57.82" x2="479.92" y2="686.96" xlink:href="#linear-gradient"/><linearGradient id="linear-gradient-13" x1="872.64" y1="74.85" x2="509.41" y2="703.99" xlink:href="#linear-gradient"/><linearGradient id="linear-gradient-14" x1="813.55" y1="40.74" x2="450.32" y2="669.88" xlink:href="#linear-gradient"/><linearGradient id="linear-gradient-15" x1="964.16" y1="127.69" x2="600.92" y2="756.83" xlink:href="#linear-gradient"/></defs><title>Story logo (lower)</title><path class="cls-1" d="M702.14,215.22q20.37,0,42.1,8.49t43.45,26.13l50.06-98.18-140,63.66C699.22,215.26,700.66,215.22,702.14,215.22Z"/><path class="cls-2" d="M702.14,215.22q20.37,0,42.1,8.49t43.45,26.13l50.06-98.18-140,63.66C699.22,215.26,700.66,215.22,702.14,215.22Z"/><path class="cls-3" d="M831.49,376.48Q815.32,357,789.15,341.8a4.73,4.73,0,0,1-.53,1.5L727.68,449.66l119.86-48.05A120.12,120.12,0,0,0,831.49,376.48Z"/><path class="cls-4" d="M831.49,376.48Q815.32,357,789.15,341.8a4.73,4.73,0,0,1-.53,1.5L727.68,449.66l119.86-48.05A120.12,120.12,0,0,0,831.49,376.48Z"/><path class="cls-1" d="M516.44,335.73q11.88,24.79,31.24,41.08A158.64,158.64,0,0,0,591.81,403q6.16,2.46,12.39,4.8l66.2-104.13L510.72,320.79A103.43,103.43,0,0,0,516.44,335.73Z"/><path class="cls-5" d="M516.44,335.73q11.88,24.79,31.24,41.08A158.64,158.64,0,0,0,591.81,403q6.16,2.46,12.39,4.8l66.2-104.13L510.72,320.79A103.43,103.43,0,0,0,516.44,335.73Z"/><path class="cls-1" d="M679.39,434.53q15.29,6.09,24.79,13.23a56.59,56.59,0,0,1,6.26,5.44L677.65,310,613.39,411.11q14.34,5.19,29,9.83Q664.11,428.43,679.39,434.53Z"/><path class="cls-6" d="M679.39,434.53q15.29,6.09,24.79,13.23a56.59,56.59,0,0,1,6.26,5.44L677.65,310,613.39,411.11q14.34,5.19,29,9.83Q664.11,428.43,679.39,434.53Z"/><path class="cls-3" d="M730.32,458.9l128.89,45a207.89,207.89,0,0,0,2.49-32.7q0-34.2-10.39-60.8Z"/><path class="cls-7" d="M730.32,458.9l128.89,45a207.89,207.89,0,0,0,2.49-32.7q0-34.2-10.39-60.8Z"/><path class="cls-1" d="M781.27,337.42a297.16,297.16,0,0,0-45.18-19Q719.8,313,703.16,308.24c-6.18-1.76-12-3.71-17.45-5.82l32.93,143.81,61.69-107.67A4.37,4.37,0,0,1,781.27,337.42Z"/><path class="cls-8" d="M781.27,337.42a297.16,297.16,0,0,0-45.18-19Q719.8,313,703.16,308.24c-6.18-1.76-12-3.71-17.45-5.82l32.93,143.81,61.69-107.67A4.37,4.37,0,0,1,781.27,337.42Z"/><path class="cls-1" d="M529.77,309.13l138.29-14.87a66.53,66.53,0,0,1-16.16-12.5q-8.14-8.82-8.15-22.41a38.18,38.18,0,0,1,4.7-19Z"/><path class="cls-9" d="M529.77,309.13l138.29-14.87a66.53,66.53,0,0,1-16.16-12.5q-8.14-8.82-8.15-22.41a38.18,38.18,0,0,1,4.7-19Z"/><path class="cls-3" d="M775.34,618.31a4.87,4.87,0,0,1,1.2,1.67,163.37,163.37,0,0,0,33.21-22.84,148.61,148.61,0,0,0,38.71-54.66,166.16,166.16,0,0,0,9-29.09l-133.1-46.46Z"/><path class="cls-10" d="M775.34,618.31a4.87,4.87,0,0,1,1.2,1.67,163.37,163.37,0,0,0,33.21-22.84,148.61,148.61,0,0,0,38.71-54.66,166.16,166.16,0,0,0,9-29.09l-133.1-46.46Z"/><path class="cls-11" d="M658,223.81,546.7,157.14l-.11-.08a154.53,154.53,0,0,0-29.47,47q-12.57,30.89-12.56,68.91a182.37,182.37,0,0,0,3.58,37.69Z"/><path class="cls-12" d="M658,223.81,546.7,157.14l-.11-.08a154.53,154.53,0,0,0-29.47,47q-12.57,30.89-12.56,68.91a182.37,182.37,0,0,0,3.58,37.69Z"/><path class="cls-11" d="M687.15,104.6c-1.8,0-3.59,0-5.38,0q-40.74,0-73.67,12.22-32.18,11.94-54.62,33.3l110.63,66.26Z"/><path class="cls-13" d="M687.15,104.6c-1.8,0-3.59,0-5.38,0q-40.74,0-73.67,12.22-32.18,11.94-54.62,33.3l110.63,66.26Z"/><path class="cls-14" d="M647,538.28l-7.44,105.83q11.85.89,23.93.89,46.84,0,83.85-12.55a212.4,212.4,0,0,0,20.05-8l-.1-.29Z"/><path class="cls-15" d="M647,538.28l-7.44,105.83q11.85.89,23.93.89,46.84,0,83.85-12.55a212.4,212.4,0,0,0,20.05-8l-.1-.29Z"/><path class="cls-14" d="M599.62,519.4Q570.42,506.5,540.55,480l-54.17,101.9,143.41-52.6A155.27,155.27,0,0,1,599.62,519.4Z"/><path class="cls-16" d="M599.62,519.4Q570.42,506.5,540.55,480l-54.17,101.9,143.41-52.6A155.27,155.27,0,0,1,599.62,519.4Z"/><path class="cls-14" d="M630,643.23l7.5-106.57L489.08,591.09Q555.07,635.28,630,643.23Z"/><path class="cls-17" d="M630,643.23l7.5-106.57L489.08,591.09Q555.07,635.28,630,643.23Z"/><path class="cls-11" d="M834.38,142.7a350.53,350.53,0,0,0-73.17-27.63A333.53,333.53,0,0,0,696.79,105c0,.12,0,.25,0,.38L674,215.65Z"/><path class="cls-18" d="M834.38,142.7a350.53,350.53,0,0,0-73.17-27.63A333.53,333.53,0,0,0,696.79,105c0,.12,0,.25,0,.38L674,215.65Z"/><path class="cls-3" d="M721.53,488.47q-1.86,16-15.65,28.89-16,14.94-48.55,14.93l-2.37,0L762,608.74Z"/><path class="cls-19" d="M721.53,488.47q-1.86,16-15.65,28.89-16,14.94-48.55,14.93l-2.37,0L762,608.74Z"/></svg>